<?xml version="1.0" encoding="UTF-8"?>
<!DOCTYPE svg PUBLIC "-//W3C//DTD SVG 1.1//EN" "http://www.w3.org/Graphics/SVG/1.1/DTD/svg11.dtd">
<!-- Creator: CorelDRAW 2018 (64-Bit) -->
<svg xmlns="http://www.w3.org/2000/svg" xml:space="preserve" width="420mm" height="297mm" version="1.1" style="shape-rendering:geometricPrecision; text-rendering:geometricPrecision; image-rendering:optimizeQuality; fill-rule:evenodd; clip-rule:evenodd"
viewBox="0 0 42000 29700"
 xmlns:xlink="http://www.w3.org/1999/xlink">
 <defs>
  <style type="text/css">
   <![CDATA[
    .fil0 {fill:#FEFEFE}
    .fil1 {fill:#5AAC8A}
    .fil2 {fill:#FEFEFE}
   ]]>
  </style>
 </defs>
 <g id="Layer_x0020_1">
  <metadata id="CorelCorpID_0Corel-Layer"/>
  <g id="_1332618871008">
   <circle class="fil0" cx="18872.29" cy="13834.36" r="1411.11"/>
   <g>
    <path class="fil1" d="M18499.39 14064.58c86.4,8.64 111.99,167.57 109.5,199.79 -4.24,54.93 -7.06,37.55 -39.34,59.37 -29.36,-27.61 -10.78,16.05 -25.39,-52.98l-36.43 -136.59c-14.3,-36.54 -37.62,-43.59 -8.34,-69.59zm531.59 -210.74c2.62,-137.09 114.18,-209.68 154.57,-328.31l131.66 1.29c0,54.7 -2.49,112.54 -1.88,166.35 0.96,83.28 -13.53,82.75 54.04,85.75l0 74.92c-78.93,6.87 -45.75,5.83 -56.35,102.37l-86.79 0.59 -7.33 -102.54 -187.92 -0.42zm-674.42 242.38l122.62 2.01c22.66,66.41 54.82,142.36 41.07,228.45 -166.43,27.76 -207.87,-11.65 -263.75,-131.19 -95.75,-204.84 -162.59,-704.98 40.46,-777.25l138.32 -23.57c18.8,38.05 38.97,91.91 45.79,146.07 17.52,138.94 -17.67,117.38 -30.57,123.04 -47.67,-49.22 -1.15,-129.74 -56.42,-210.95 3.69,82.7 25.94,113.6 14.4,206.17 -127.11,22.26 -131.9,31.05 -117.63,185.25 8.63,93.32 35.47,182.89 65.71,251.97zm39.65 -660.49c-1.66,-58.7 -31.53,-4.69 -10.49,-0.4 0.21,0.05 11.9,50.64 10.49,0.4zm579.99 441.77l-0.27 79.09 -299.35 -5.92c-9.12,-145.89 244.12,-146.77 179.69,-338.59 -64.06,-21.15 -99.32,1 -154.12,12.96l-16.02 -61.73c162.99,-124.73 381.28,27.2 242.87,199.91 -15.71,19.6 -27.27,28.44 -46.21,48.43l-48.96 63.38 142.37 2.47zm-119.57 -645.72c1.13,-2.83 0.68,-7.62 0.72,-9.11l-0.72 -62.9c304.32,112.52 470.86,98.25 607.83,354.29 60.98,114.01 84.38,264.09 46.15,400.71 -34.37,122.8 -120.25,246.47 -198.14,282.84l35.59 60.26c1.47,-2.63 6.84,6.22 9.91,9.66 -157.9,6.21 -270.79,58.33 -403.23,53.09 -96.69,-3.83 -276.58,-57.47 -313,-125.52 66.72,2.13 173.18,102.59 357.49,96.89 167.53,-5.18 221.26,-98.88 297.82,-176.18 -17.11,96.96 5.1,37.07 28.07,57.49 58.32,-72.1 129.9,-146.48 161.55,-282.54 59.66,-256.56 -63.11,-483.6 -285.44,-593.02 -131.29,-64.61 -222.91,-24.08 -344.6,26.84 -1.55,-2.8 -1.63,-7.91 -1.79,-9.42 -0.16,-1.45 -1.28,-7.42 -1.4,-9.15l3.19 -40.78c-151.36,33.7 -293.6,141.36 -329.44,257.38 -7.86,-11.26 -50.88,21.28 -5.38,-68.82l122.94 -118.4c71.4,-61.06 117.41,-70.44 211.88,-103.61zm1213.41 778.08c112.81,-731.09 -399.6,-1287.82 -1005.71,-1389.88 -721.42,-121.46 -1292.23,409.97 -1390.75,1002.63 -121.44,730.45 405.86,1295.32 1005.18,1394.47 639.21,105.76 1287.47,-334.44 1391.28,-1007.22z"/>
    <path class="fil2" d="M18385.72 13435.33c-21.04,-4.29 8.83,-58.3 10.49,0.4 1.41,50.24 -10.28,-0.35 -10.49,-0.4zm-29.16 660.89c-30.24,-69.08 -57.08,-158.65 -65.71,-251.97 -14.27,-154.2 -9.48,-162.99 117.63,-185.25 11.54,-92.57 -10.71,-123.47 -14.4,-206.17 55.27,81.21 8.75,161.73 56.42,210.95 12.9,-5.66 48.09,15.9 30.57,-123.04 -6.82,-54.16 -26.99,-108.02 -45.79,-146.07l-138.32 23.57c-203.05,72.27 -136.21,572.41 -40.46,777.25 55.88,119.54 97.32,158.95 263.75,131.19 13.75,-86.09 -18.41,-162.04 -41.07,-228.45l-122.62 -2.01z"/>
    <path class="fil2" d="M18856.63 13231.78c-94.47,33.17 -140.48,42.55 -211.88,103.61l-122.94 118.4c-45.5,90.1 -2.48,57.56 5.38,68.82 35.84,-116.02 178.08,-223.68 329.44,-257.38l-3.19 40.78c0.12,1.73 1.24,7.7 1.4,9.15 0.16,1.51 0.24,6.62 1.79,9.42 121.69,-50.92 213.31,-91.45 344.6,-26.84 222.33,109.42 345.1,336.46 285.44,593.02 -31.65,136.06 -103.23,210.44 -161.55,282.54 -22.97,-20.42 -45.18,39.47 -28.07,-57.49 -76.56,77.3 -130.29,171 -297.82,176.18 -184.31,5.7 -290.77,-94.76 -357.49,-96.89 36.42,68.05 216.31,121.69 313,125.52 132.44,5.24 245.33,-46.88 403.23,-53.09 -3.07,-3.44 -8.44,-12.29 -9.91,-9.66l-35.59 -60.26c77.89,-36.37 163.77,-160.04 198.14,-282.84 38.23,-136.62 14.83,-286.7 -46.15,-400.71 -136.97,-256.04 -303.51,-241.77 -607.83,-354.29l0.72 62.9c-0.04,1.49 0.41,6.28 -0.72,9.11z"/>
    <path class="fil2" d="M19134.73 13778.83c6.48,-40.86 57.57,-115.69 87.62,-163.12l-7.31 162.78 -80.31 0.34zm-103.75 75.01l187.92 0.42 7.33 102.54 86.79 -0.59c10.6,-96.54 -22.58,-95.5 56.35,-102.37l0 -74.92c-67.57,-3 -53.08,-2.47 -54.04,-85.75 -0.61,-53.81 1.88,-111.65 1.88,-166.35l-131.66 -1.29c-40.39,118.63 -151.95,191.22 -154.57,328.31z"/>
    <path class="fil2" d="M18686.13 13563.31l16.02 61.73c54.8,-11.96 90.06,-34.11 154.12,-12.96 64.43,191.82 -188.81,192.7 -179.69,338.59l299.35 5.92 0.27 -79.09 -142.37 -2.47 48.96 -63.38c18.94,-19.99 30.5,-28.83 46.21,-48.43 138.41,-172.71 -79.88,-324.64 -242.87,-199.91z"/>
    <path class="fil2" d="M18608.89 14264.37c2.49,-32.22 -23.1,-191.15 -109.5,-199.79 -29.28,26 -5.96,33.05 8.34,69.59l36.43 136.59c14.61,69.03 -3.97,25.37 25.39,52.98 32.28,-21.82 35.1,-4.44 39.34,-59.37z"/>
    <path class="fil1" d="M19134.73 13778.83l80.31 -0.34 7.31 -162.78c-30.05,47.43 -81.14,122.26 -87.62,163.12z"/>
   </g>
  </g>
 </g>
</svg>
