<?xml version="1.0" encoding="UTF-8"?>
<!DOCTYPE svg PUBLIC "-//W3C//DTD SVG 1.1//EN" "http://www.w3.org/Graphics/SVG/1.1/DTD/svg11.dtd">
<!-- Creator: CorelDRAW 2018 (64-Bit) -->
<svg xmlns="http://www.w3.org/2000/svg" xml:space="preserve" width="30px" height="30px" version="1.1" style="shape-rendering:geometricPrecision; text-rendering:geometricPrecision; image-rendering:optimizeQuality; fill-rule:evenodd; clip-rule:evenodd"
viewBox="0 0 30 30"
 xmlns:xlink="http://www.w3.org/1999/xlink">
 <defs>
  <style type="text/css">
   <![CDATA[
    .fil2 {fill:#00B497}
    .fil1 {fill:#330C00}
    .fil13 {fill:#3ABDAA}
    .fil5 {fill:#3B2519}
    .fil14 {fill:#401900}
    .fil15 {fill:#51362A}
    .fil7 {fill:#684B37}
    .fil10 {fill:#8FD6E7}
    .fil12 {fill:#F283B4}
    .fil17 {fill:#F36C21}
    .fil11 {fill:#F6B1CF}
    .fil16 {fill:#F7941E}
    .fil8 {fill:#F7945E}
    .fil9 {fill:#F9AA8D}
    .fil4 {fill:#FCBC85}
    .fil3 {fill:#FDCC9B}
    .fil0 {fill:#FEFEFE}
    .fil6 {fill:white}
   ]]>
  </style>
 </defs>
 <g id="Layer_x0020_1">
  <metadata id="CorelCorpID_0Corel-Layer"/>
  <g id="_2762379410992">
   <circle class="fil0" cx="15.06" cy="14.46" r="14.96"/>
   <g id="_1332629975760">
    <g>
     <path class="fil1" d="M12.67 8.86l0 14.97c0,0 -8.5,0.88 -8.5,-3.26 0,0 2.28,0.28 1.81,-1.62 -0.59,-2.41 -0.26,-6.32 0,-8.45 0.27,-2.14 6.69,-1.64 6.69,-1.64z"/>
     <path class="fil1" d="M12.64 8.86l0 14.97c0,0 8.49,0.88 8.49,-3.26 0,0 -2.28,0.28 -1.81,-1.62 0.59,-2.41 0.26,-6.32 0,-8.45 -0.26,-2.14 -6.68,-1.64 -6.68,-1.64z"/>
     <path class="fil2" d="M12.81 21.6l0 -2.18c0,0 3.47,-0.1 3.47,1.99l-3.47 0.19z"/>
     <path class="fil2" d="M12.52 21.6l0 -2.18c0,0 -3.46,-0.1 -3.46,1.99l3.46 0.19z"/>
     <g>
      <g>
       <rect class="fil3" x="11.29" y="19.42" width="2.75" height="3.08"/>
       <path class="fil4" d="M11.29 19.78c0,0 1.16,0.74 2.75,0.57l0 -0.93 -2.75 0 0 0.36z"/>
       <ellipse class="fil4" cx="7.33" cy="14.65" rx="1.34" ry="1.53"/>
       <ellipse class="fil4" cx="18.01" cy="14.65" rx="1.34" ry="1.53"/>
       <path class="fil3" d="M18 11.72c0,-2.25 -1.65,-3.9 -5.33,-3.9 -3.69,0 -5.34,1.65 -5.34,3.9 0,2.26 -0.38,8.2 5.34,8.2 5.72,0 5.33,-5.94 5.33,-8.2z"/>
       <g>
        <g>
         <ellipse class="fil5" cx="10.07" cy="14.28" rx="0.58" ry="0.63"/>
         <circle class="fil6" cx="9.82" cy="14" r="0.17"/>
        </g>
        <path class="fil7" d="M9.14 12.92c0.28,0.1 0.72,-0.36 1.72,0.04 0.18,0.07 0.29,-0.62 -0.79,-0.62 -0.93,0 -1.09,0.51 -0.93,0.58z"/>
        <g>
         <ellipse class="fil5" cx="15.34" cy="14.28" rx="0.58" ry="0.63"/>
         <circle class="fil6" cx="15.08" cy="14" r="0.17"/>
        </g>
        <path class="fil7" d="M16.19 12.92c-0.28,0.1 -0.71,-0.36 -1.72,0.04 -0.18,0.07 -0.29,-0.62 0.79,-0.62 0.93,0 1.09,0.51 0.93,0.58z"/>
       </g>
       <path class="fil4" d="M12.67 16.5c-0.57,0 -0.92,-0.42 -0.92,-0.21 0,0.2 0.17,0.59 0.92,0.59 0.74,0 0.91,-0.39 0.91,-0.59 0,-0.21 -0.34,0.21 -0.91,0.21z"/>
       <path class="fil4" d="M12.67 18.4c-0.2,0 -0.32,-0.15 -0.32,-0.08 0,0.08 0.06,0.21 0.32,0.21 0.25,0 0.31,-0.13 0.31,-0.21 0,-0.07 -0.12,0.08 -0.31,0.08z"/>
       <path class="fil8" d="M12.67 17.88c-0.91,0 -1.45,-0.37 -1.45,-0.28 0,0.09 0.26,0.46 1.45,0.46 1.18,0 1.45,-0.37 1.45,-0.46 0,-0.09 -0.55,0.28 -1.45,0.28z"/>
      </g>
      <circle class="fil9" cx="9.33" cy="16.3" r="0.78"/>
      <circle class="fil9" cx="16.1" cy="16.3" r="0.78"/>
     </g>
     <path class="fil10" d="M12.67 20.66l0 3.46 -6.03 0c0,-1.4 2.86,-3.46 6.03,-3.46z"/>
     <path class="fil10" d="M12.67 20.66l0 3.46 6.02 0c0,-1.4 -2.86,-3.46 -6.02,-3.46z"/>
     <path class="fil11" d="M12.67 23.97l0 -3.31c-0.88,0 -1.74,0.16 -2.52,0.43l2.52 2.88z"/>
     <path class="fil11" d="M12.67 23.97l0 -3.31c0.88,0 1.73,0.16 2.51,0.43l-2.51 2.88z"/>
     <path class="fil12" d="M12.67 20.66c-0.65,0 -1.27,0.09 -1.87,0.23 0.09,0.52 0.44,1.57 1.87,1.57 1.43,0 1.77,-1.05 1.86,-1.57 -0.6,-0.14 -1.22,-0.23 -1.86,-0.23z"/>
     <path class="fil3" d="M11.29 20.78c0,0 0,1.24 1.38,1.24 1.37,0 1.37,-1.24 1.37,-1.24 0,0 -1.43,-0.52 -2.75,0z"/>
     <path class="fil13" d="M10.56 20.92c0.04,-0.27 -1.6,-0.07 -1.59,0.68 0.02,0.76 1.82,1.34 2.31,1.61 0.5,0.28 1.38,0.91 1.38,0.91 0,0 0.16,-0.63 -0.61,-1.13 -0.77,-0.49 -1.54,-1.71 -1.49,-2.07z"/>
     <path class="fil13" d="M14.75 20.92c-0.04,-0.27 1.6,-0.07 1.59,0.68 -0.02,0.76 -1.82,1.34 -2.31,1.61 -0.5,0.28 -1.38,0.91 -1.38,0.91 0,0 -0.16,-0.63 0.61,-1.13 0.77,-0.49 1.55,-1.71 1.49,-2.07z"/>
     <path class="fil14" d="M12.67 4.79c-6.19,0 -7.02,5.4 -7.02,9.38 0,3.98 2.06,6.3 3.67,6.94 0,0 -2.57,-4.55 -1.3,-8.77 1.03,-3.45 4.65,-2.43 4.65,-2.43 0,0 3.61,-1.02 4.64,2.43 1.27,4.22 -1.3,8.77 -1.3,8.77 1.61,-0.64 3.67,-2.96 3.67,-6.94 0,-3.98 -0.83,-9.38 -7.01,-9.38z"/>
     <path class="fil14" d="M14.76 10.86c0,0 -2.32,1.16 -4.37,0.93 -2.05,-0.23 -2.84,1.89 -2.72,3.3l-0.68 -3.13 1.24 -2.48 3.52 -1.81 3.33 0.15 1.58 1.37 1.35 1.67 0.94 1.1 -0.46 3.38 -0.96 1.15c0,0 0.87,-4.33 -2.77,-5.63z"/>
    </g>
    <g>
    </g>
    <g>
    </g>
    <g>
    </g>
    <g>
    </g>
    <g>
    </g>
    <g>
    </g>
    <g>
    </g>
    <g>
    </g>
    <g>
    </g>
    <g>
    </g>
    <g>
    </g>
    <g>
    </g>
    <g>
    </g>
    <g>
    </g>
    <g>
    </g>
   </g>
   <g id="_1332629979760">
    <g>
     <g>
      <rect class="fil3" x="16.55" y="19.23" width="2.86" height="3.21"/>
      <path class="fil4" d="M16.55 19.61c0,0 1.21,0.76 2.87,0.59l0 -0.97 -2.87 0 0 0.38z"/>
      <ellipse class="fil4" cx="12.43" cy="14.26" rx="1.4" ry="1.59"/>
      <ellipse class="fil4" cx="23.55" cy="14.26" rx="1.4" ry="1.59"/>
      <path class="fil3" d="M23.54 11.21c0,-2.34 -1.72,-4.06 -5.55,-4.06 -3.84,0 -5.56,1.72 -5.56,4.06 0,2.35 -0.4,8.53 5.56,8.53 5.95,0 5.55,-6.18 5.55,-8.53z"/>
      <g>
       <g>
        <ellipse class="fil5" cx="15.28" cy="13.87" rx="0.6" ry="0.66"/>
        <circle class="fil6" cx="15.02" cy="13.58" r="0.18"/>
       </g>
       <path class="fil15" d="M14.32 12.24c0.28,0.15 0.74,-0.48 1.78,0.06 0.19,0.1 0.31,-0.84 -0.81,-0.84 -0.97,0 -1.14,0.7 -0.97,0.78z"/>
       <g>
        <ellipse class="fil5" cx="20.77" cy="13.87" rx="0.6" ry="0.66"/>
        <circle class="fil6" cx="20.5" cy="13.58" r="0.18"/>
       </g>
       <path class="fil15" d="M21.65 12.24c-0.28,0.15 -0.74,-0.48 -1.78,0.06 -0.19,0.1 -0.31,-0.84 0.81,-0.84 0.97,0 1.14,0.7 0.97,0.78z"/>
      </g>
      <path class="fil4" d="M17.99 16.19c-0.6,0 -0.96,-0.44 -0.96,-0.23 0,0.22 0.18,0.63 0.96,0.63 0.78,0 0.95,-0.41 0.95,-0.63 0,-0.21 -0.36,0.23 -0.95,0.23z"/>
      <path class="fil4" d="M17.99 18.17c-0.21,0 -0.33,-0.16 -0.33,-0.08 0,0.07 0.06,0.21 0.33,0.21 0.27,0 0.33,-0.14 0.33,-0.21 0,-0.08 -0.13,0.08 -0.33,0.08z"/>
      <path class="fil8" d="M17.99 17.62c-0.95,0 -1.51,-0.39 -1.51,-0.29 0,0.1 0.27,0.48 1.51,0.48 1.23,0 1.5,-0.38 1.5,-0.48 0,-0.1 -0.56,0.29 -1.5,0.29z"/>
     </g>
     <path class="fil16" d="M17.99 20.52l0 3.6 -6.96 0c0,-1.46 3.66,-3.6 6.96,-3.6z"/>
     <path class="fil16" d="M17.99 20.52l0 3.6 6.95 0c0,-1.46 -3.66,-3.6 -6.95,-3.6z"/>
     <path class="fil17" d="M17.99 20.52c-0.7,0 -1.42,0.09 -2.12,0.26 0.01,0.01 0.77,1 2.12,1 1.24,0 2.06,-0.85 2.18,-0.98 -0.71,-0.18 -1.46,-0.28 -2.18,-0.28z"/>
     <path class="fil3" d="M16.55 20.64c0,0 0.42,0.52 1.44,0.52 1.01,0 1.43,-0.52 1.43,-0.52 0,0 -1.49,-0.54 -2.87,0z"/>
     <path class="fil15" d="M22.55 6.65c0,0 -2.06,-2.62 -6.34,-1.64 -4.29,0.99 -4.61,3.57 -4.48,6.08 0.13,2.5 0.47,3.97 0.88,3.79 0.41,-0.18 0.19,-1.83 0.24,-2.22 0.04,-0.38 0.43,-2.11 3.03,-1.85 2.61,0.26 4.8,-0.69 4.8,-0.69 0,0 0.89,1.12 1.47,1.34 1.16,0.42 0.78,3.28 1.23,3.28 0.46,0 2.69,-6.59 -0.83,-8.09z"/>
    </g>
    <g>
    </g>
    <g>
    </g>
    <g>
    </g>
    <g>
    </g>
    <g>
    </g>
    <g>
    </g>
    <g>
    </g>
    <g>
    </g>
    <g>
    </g>
    <g>
    </g>
    <g>
    </g>
    <g>
    </g>
    <g>
    </g>
    <g>
    </g>
    <g>
    </g>
   </g>
  </g>
 </g>
</svg>
