<?xml version="1.0" encoding="UTF-8"?>
<!DOCTYPE svg PUBLIC "-//W3C//DTD SVG 1.1//EN" "http://www.w3.org/Graphics/SVG/1.1/DTD/svg11.dtd">
<!-- Creator: CorelDRAW 2018 (64-Bit) -->
<svg xmlns="http://www.w3.org/2000/svg" xml:space="preserve" width="420mm" height="297mm" version="1.1" style="shape-rendering:geometricPrecision; text-rendering:geometricPrecision; image-rendering:optimizeQuality; fill-rule:evenodd; clip-rule:evenodd"
viewBox="0 0 42000 29700"
 xmlns:xlink="http://www.w3.org/1999/xlink">
 <defs>
  <style type="text/css">
   <![CDATA[
    .fil0 {fill:#FEFEFE}
    .fil2 {fill:#00B497}
    .fil1 {fill:#330C00}
    .fil13 {fill:#3ABDAA}
    .fil5 {fill:#3B2519}
    .fil14 {fill:#401900}
    .fil15 {fill:#51362A}
    .fil7 {fill:#684B37}
    .fil10 {fill:#8FD6E7}
    .fil12 {fill:#F283B4}
    .fil17 {fill:#F36C21}
    .fil11 {fill:#F6B1CF}
    .fil16 {fill:#F7941E}
    .fil8 {fill:#F7945E}
    .fil9 {fill:#F9AA8D}
    .fil4 {fill:#FCBC85}
    .fil3 {fill:#FDCC9B}
    .fil6 {fill:white}
   ]]>
  </style>
 </defs>
 <g id="Layer_x0020_1">
  <metadata id="CorelCorpID_0Corel-Layer"/>
  <circle class="fil0" cx="16516.23" cy="23766.35" r="932.08"/>
  <g id="_1332629975760">
   <g>
    <path class="fil1" d="M16366.88 23417.64l0 932.66c0,0 -529.45,54.87 -529.45,-203.23 0,0 142.21,17.92 113.09,-100.68 -36.91,-150.37 -16.26,-393.89 0,-526.99 16.27,-133.11 416.36,-101.76 416.36,-101.76z"/>
    <path class="fil1" d="M16365.16 23417.64l0 932.66c0,0 529.45,54.87 529.45,-203.23 0,0 -142.21,17.92 -113.09,-100.68 36.9,-150.37 16.26,-393.89 0,-526.99 -16.27,-133.11 -416.36,-101.76 -416.36,-101.76z"/>
    <path class="fil2" d="M16376.12 24211.6l0 -135.88c0,0 215.68,-6.53 215.68,124.01l-215.68 11.87z"/>
    <path class="fil2" d="M16357.64 24211.6l0 -135.88c0,0 -215.69,-6.53 -215.69,124.01l215.69 11.87z"/>
    <g>
     <g>
      <rect class="fil3" x="16281.21" y="24075.71" width="171.34" height="191.91"/>
      <path class="fil4" d="M16281.21 24098.32c0,0 72.07,45.89 171.34,35.27l0 -57.88 -171.34 0 0 22.61z"/>
      <ellipse class="fil4" cx="16034.13" cy="23778.14" rx="83.6" ry="95.39"/>
      <ellipse class="fil4" cx="16699.61" cy="23778.14" rx="83.6" ry="95.39"/>
      <path class="fil3" d="M16699.27 23595.95c0,-140.5 -102.8,-243.3 -332.39,-243.3 -229.61,0 -332.41,102.81 -332.41,243.3 0,140.5 -23.98,510.6 332.41,510.6 356.39,0 332.39,-370.09 332.39,-510.6z"/>
      <g>
       <g>
        <ellipse class="fil5" cx="16204.97" cy="23755.3" rx="35.98" ry="39.41"/>
        <circle class="fil6" cx="16189.29" cy="23737.9" r="10.76"/>
       </g>
       <path class="fil7" d="M16147.41 23670.33c17.01,6.52 44.34,-22.14 106.88,2.79 11.4,4.55 18.2,-38.87 -48.84,-38.87 -58.04,0 -68.32,32.14 -58.04,36.08z"/>
       <g>
        <ellipse class="fil5" cx="16533.22" cy="23755.3" rx="35.98" ry="39.41"/>
        <circle class="fil6" cx="16517.54" cy="23737.9" r="10.77"/>
       </g>
       <path class="fil7" d="M16586.34 23670.33c-17.02,6.52 -44.33,-22.14 -106.88,2.79 -11.39,4.55 -18.2,-38.87 48.84,-38.87 58.04,0 68.32,32.14 58.04,36.08z"/>
      </g>
      <path class="fil4" d="M16366.88 23893.92c-35.56,0 -56.98,-26.56 -56.98,-13.71 0,12.85 10.29,37.27 56.98,37.27 46.69,0 56.96,-24.41 56.96,-37.27 0,-12.85 -21.41,13.71 -56.96,13.71z"/>
      <path class="fil4" d="M16366.88 24012.08c-12.3,0 -19.71,-9.19 -19.71,-4.74 0,4.45 3.55,12.89 19.71,12.89 16.15,0 19.7,-8.45 19.7,-12.89 0,-4.45 -7.41,4.74 -19.7,4.74z"/>
      <path class="fil8" d="M16366.88 23979.34c-56.36,0 -90.31,-22.96 -90.31,-17.14 0,5.81 16.3,28.7 90.31,28.7 74.01,0 90.3,-22.89 90.3,-28.7 0.01,-5.81 -33.95,17.14 -90.3,17.14z"/>
     </g>
     <circle class="fil9" cx="16158.7" cy="23881.24" r="48.83"/>
     <circle class="fil9" cx="16581.06" cy="23881.24" r="48.83"/>
    </g>
    <path class="fil10" d="M16366.88 24152.82l0 215.89 -375.23 0c0,-87.38 178.18,-215.89 375.23,-215.89z"/>
    <path class="fil10" d="M16366.88 24152.82l0 215.89 375.22 0c0,-87.38 -178.18,-215.89 -375.22,-215.89z"/>
    <path class="fil11" d="M16366.88 24358.94l0 -206.12c-54.89,0 -108.14,10.21 -156.65,26.48l156.65 179.64z"/>
    <path class="fil11" d="M16366.88 24358.94l0 -206.12c54.88,0 108.12,10.21 156.64,26.48l-156.64 179.64z"/>
    <path class="fil12" d="M16366.88 24152.82c-39.93,0 -78.96,5.47 -116,14.61 5.27,32.07 26.93,97.85 116,97.85 89.06,0 110.71,-65.78 115.99,-97.85 -37.04,-9.15 -76.07,-14.61 -115.99,-14.61z"/>
    <path class="fil3" d="M16281.21 24160.29c0,0 -0.01,77.17 85.67,77.17 85.67,0 85.67,-77.17 85.67,-77.17 0,0 -88.89,-32.36 -171.34,0z"/>
    <path class="fil13" d="M16235.77 24168.92c2.56,-16.67 -99.79,-4.38 -98.96,42.68 0.85,47.05 113.09,83.26 143.93,100.39 30.84,17.14 85.67,56.71 85.67,56.71 0,0 10.28,-39.75 -37.7,-70.42 -47.96,-30.66 -96.37,-107.08 -92.94,-129.36z"/>
    <path class="fil13" d="M16496.73 24168.92c-2.56,-16.67 99.79,-4.38 98.96,42.68 -0.85,47.05 -113.09,83.26 -143.93,100.39 -30.84,17.14 -85.67,56.71 -85.67,56.71 0,0 -10.28,-39.75 37.7,-70.42 47.96,-30.66 96.37,-107.08 92.94,-129.36z"/>
    <path class="fil14" d="M16366.88 23164c-385.53,0 -436.93,336.61 -436.93,584.66 0,248.07 128.42,392.12 228.75,432.35 0,0 -160.21,-283.92 -81.4,-546.76 64.49,-215.05 289.58,-151.55 289.58,-151.55 0,0 225.07,-63.51 289.56,151.55 78.82,262.84 -81.39,546.76 -81.39,546.76 100.33,-40.23 228.75,-184.28 228.75,-432.35 0,-248.05 -51.4,-584.66 -436.92,-584.66z"/>
    <path class="fil14" d="M16497.24 23542.09c0,0 -144.7,72.54 -272.48,57.98 -127.78,-14.57 -176.86,117.9 -169.06,205.58l-42.64 -195.13 77.1 -154.38 219.74 -113.09 207.64 9.6 98.47 85.5 83.61 103.94 58.77 68.43 -28.27 210.58 -59.86 71.98c0.01,0 54.16,-270.18 -173.02,-350.99z"/>
   </g>
   <g>
   </g>
   <g>
   </g>
   <g>
   </g>
   <g>
   </g>
   <g>
   </g>
   <g>
   </g>
   <g>
   </g>
   <g>
   </g>
   <g>
   </g>
   <g>
   </g>
   <g>
   </g>
   <g>
   </g>
   <g>
   </g>
   <g>
   </g>
   <g>
   </g>
  </g>
  <g id="_1332629979760">
   <g>
    <g>
     <rect class="fil3" x="16609.18" y="24063.64" width="178.4" height="199.81"/>
     <path class="fil4" d="M16609.19 24087.17c0,0 75.04,47.79 178.4,36.72l0 -60.25 -178.4 0 0 23.53z"/>
     <ellipse class="fil4" cx="16351.93" cy="23753.81" rx="87.05" ry="99.32"/>
     <ellipse class="fil4" cx="17044.84" cy="23753.81" rx="87.05" ry="99.32"/>
     <path class="fil3" d="M17044.49 23564.11c0,-146.29 -107.05,-253.33 -346.11,-253.33 -239.06,0 -346.1,107.04 -346.1,253.33 0,146.29 -24.97,531.64 346.1,531.64 371.08,0 346.11,-385.35 346.11,-531.64z"/>
     <g>
      <g>
       <ellipse class="fil5" cx="16529.81" cy="23730.02" rx="37.46" ry="41.03"/>
       <circle class="fil6" cx="16513.47" cy="23711.91" r="11.2"/>
      </g>
      <path class="fil15" d="M16469.87 23628.33c17.72,8.87 46.17,-30.1 111.28,3.8 11.87,6.18 18.96,-52.85 -50.84,-52.85 -60.44,0 -71.14,43.71 -60.44,49.05z"/>
      <g>
       <ellipse class="fil5" cx="16871.59" cy="23730.02" rx="37.46" ry="41.03"/>
       <circle class="fil6" cx="16855.25" cy="23711.91" r="11.2"/>
      </g>
      <path class="fil15" d="M16926.9 23628.33c-17.72,8.87 -46.17,-30.1 -111.28,3.8 -11.87,6.18 -18.96,-52.85 50.84,-52.85 60.44,0 71.14,43.71 60.44,49.05z"/>
     </g>
     <path class="fil4" d="M16698.38 23874.36c-37.02,0 -59.32,-27.66 -59.32,-14.28 0,13.38 10.71,38.81 59.32,38.81 48.62,0 59.32,-25.43 59.32,-38.81 0,-13.38 -22.3,14.28 -59.32,14.28z"/>
     <path class="fil4" d="M16698.38 23997.38c-12.8,0 -20.52,-9.57 -20.52,-4.94 0,4.63 3.71,13.42 20.52,13.42 16.82,0 20.52,-8.79 20.52,-13.42 0,-4.63 -7.72,4.94 -20.52,4.94z"/>
     <path class="fil8" d="M16698.38 23963.29c-58.67,0 -94.03,-23.9 -94.03,-17.84 0,6.06 16.97,29.89 94.03,29.89 77.06,0 94.03,-23.83 94.03,-29.89 0,-6.06 -35.35,17.84 -94.03,17.84z"/>
    </g>
    <path class="fil16" d="M16698.38 24143.92l0 224.79 -433.5 0c0,-90.99 228.34,-224.79 433.5,-224.79z"/>
    <path class="fil16" d="M16698.38 24143.92l0 224.79 433.51 0c0,-90.99 -228.34,-224.79 -433.51,-224.79z"/>
    <path class="fil17" d="M16698.38 24143.92c-43.63,0 -88.32,6.1 -131.63,16.51 0.29,0.38 48.04,61.99 131.63,61.99 77.41,0 128.87,-52.76 136.33,-60.88 -44.78,-11.11 -91.11,-17.62 -136.33,-17.62z"/>
    <path class="fil3" d="M16609.18 24151.7c0,0 26.09,32.36 89.2,32.36 63.11,0 89.2,-32.36 89.2,-32.36 0,0 -92.54,-33.69 -178.4,0z"/>
    <path class="fil15" d="M16982.93 23279.56c0,0 -128.45,-163.23 -395.42,-101.69 -266.96,61.54 -286.97,222.11 -278.94,378.33 8.03,156.22 29.44,247.86 54.76,236.54 25.32,-11.33 12.14,-114.45 14.82,-138.25 2.68,-23.79 26.76,-131.41 189.13,-115.35 162.36,16.06 299.18,-42.82 299.18,-42.82 0,0 55.08,69.62 91.33,82.96 72.43,26.65 48.67,204.35 77.05,204.35 28.38,0 167.53,-410.41 -51.91,-504.07z"/>
   </g>
   <g>
   </g>
   <g>
   </g>
   <g>
   </g>
   <g>
   </g>
   <g>
   </g>
   <g>
   </g>
   <g>
   </g>
   <g>
   </g>
   <g>
   </g>
   <g>
   </g>
   <g>
   </g>
   <g>
   </g>
   <g>
   </g>
   <g>
   </g>
   <g>
   </g>
  </g>
 </g>
</svg>
