<?xml version="1.0" encoding="UTF-8"?>
<!DOCTYPE svg PUBLIC "-//W3C//DTD SVG 1.1//EN" "http://www.w3.org/Graphics/SVG/1.1/DTD/svg11.dtd">
<!-- Creator: CorelDRAW 2018 (64-Bit) -->
<svg xmlns="http://www.w3.org/2000/svg" xml:space="preserve" width="417px" height="416px" version="1.1" style="shape-rendering:geometricPrecision; text-rendering:geometricPrecision; image-rendering:optimizeQuality; fill-rule:evenodd; clip-rule:evenodd"
viewBox="0 0 417 416"
 xmlns:xlink="http://www.w3.org/1999/xlink">
 <defs>
  <style type="text/css">
   <![CDATA[
    .fil3 {fill:#009B50}
    .fil0 {fill:#00A2E8}
    .fil4 {fill:#322D2C}
    .fil1 {fill:#FDFDFD}
    .fil2 {fill:#FEEF00}
   ]]>
  </style>
 </defs>
 <g id="Layer_x0020_1">
  <metadata id="CorelCorpID_0Corel-Layer"/>
  <g id="_1504576180544">
   <path class="fil0" d="M156.58 348.2l2.12 -0.92 -2.12 0.92c-15.61,1.69 -16.82,3.28 -31.97,-1.92 6.02,-9.32 12.62,-9.83 21.69,-13.49l1.48 -0.75c-5.86,-2.84 -4.51,-3.42 -11.39,-1.01 -3.97,1.39 -8.11,2.25 -12.77,2.31 -8.36,0.12 -17.95,-2.34 -23.56,-7.07 1.64,-3 1.13,-2.26 4.36,-4.22 6.25,-3.77 11.95,-4.63 19.38,-4.86 -6.47,-7.68 -11.76,-0.59 -25.45,-3.72 -8.15,-1.86 -16.62,-6.44 -19.78,-11.49 9.87,-3.89 12.11,-6.42 24.23,-3.81l-1.62 -3.61c-9.98,-1.35 -13.09,0.67 -23.28,-3.59 -5.5,-2.3 -12.62,-7.69 -14.25,-11.57 9.98,-4.2 11.78,-3.46 22.98,-1.61 -2.08,-5.73 -1.88,-5.61 -8.57,-7 -10.91,-2.27 -21.18,-9.18 -25.67,-19.69 11.05,-2.39 11.78,-0.92 21.23,2.23 -1.81,-6.04 -2.39,-4.02 -8.13,-6.9 -9.47,-4.77 -17.38,-12.59 -19.93,-24.28 12.63,-0.78 12.95,3.66 20.01,6.89 -0.28,-6.28 -1.28,-5.4 -5.61,-8.14 -9.07,-5.76 -14.64,-14.64 -16.4,-26.03 11.17,1.03 12.85,4.87 18.79,9.37 0.26,-6.18 -0.94,-5.77 -3.92,-8.82 -7.01,-7.2 -10.77,-16.84 -10.04,-27.93 3.49,0.75 6.21,2.25 8.61,4.34l6.91 6.92c0.08,-10.26 -11.9,-11.02 -8.35,-36.49 7.26,2.32 10.01,7.99 13.42,14.75 2.91,-6.36 -2.09,-9.53 -3.12,-17.95 -0.77,-6.28 0.53,-16 3.74,-20.25 5.07,3.76 7.52,8.05 8.68,15.84 3.18,-4.83 -7.32,-20.91 4.72,-34.88 1.74,2.7 3.18,2.93 4.83,7.31 1.3,3.46 1.12,7.79 3.14,10.73 2.84,-5.99 -3.84,-26.91 8.02,-33.52 1.27,2.16 2.99,4.4 3.81,7.72 0.52,2.13 0.44,3.72 0.75,5.28l1.25 3.65c0.07,-0.14 0.27,0.61 0.48,0.86 3.12,-4.35 1.15,-11.99 2.99,-17.82 1.82,-5.77 4.66,-10.6 8.33,-13.17l2.14 3.33c1.87,4.35 1.02,9.17 0.64,13.72 4.73,-2.14 4,-1.6 4.53,-7.33 0.7,-7.67 4.97,-16.2 10.69,-20.31l2.58 7.18c0.19,3.2 -0.48,5.51 -0.82,8.62 7.03,-2.51 3.67,-7.33 7.38,-14.56 2.32,-4.52 5.93,-8.69 9.75,-11.07 2.8,8.83 1.01,8.6 0.35,16.6 5.79,-7.47 16.52,-11.65 30.42,-12.31 -3.66,11.14 -13.2,13.44 -22.01,18.59 0.21,0.16 0.51,0.35 0.66,0.44 3.11,2.01 6.6,3.72 8.68,6.56 -6.08,5.51 -18.85,4.85 -26.85,1.46 3.5,2.7 6.38,2.52 10.4,6.54 -5.51,7.65 -19.9,4.52 -26.96,3.91 3.72,2.58 9.25,3.54 12.34,7.02 -3.2,1.96 -6.78,4.41 -11.53,5.49 -5.16,1.17 -11.07,-0.36 -16.32,0.66 1.91,1.64 11.76,2.63 15.75,4.73 -5.56,8.31 -9.88,6.77 -18.54,11.62l5.67 2.57c-2.19,3.98 -6.9,7.43 -12.1,9.88 -5.24,2.46 -13.59,2.49 -16.77,4.12l4.11 0.32c30.39,-4.38 3.39,14.34 -1.78,15.23l7.6 -0.08c-2.07,7.48 -5.76,11.69 -9.99,15.59 -6.44,5.94 -13.22,5.67 -14.08,11.27 3.19,-1.66 4.42,-3.91 8.42,-5.93 3.12,-1.58 6.61,-2.41 10.65,-2.92 -0.65,7.06 -5.23,15.94 -8.51,19.08 3.26,-0.61 2.1,-1.48 4.68,-0.56 0.81,11.42 -3.64,21.29 -10.48,28.76 -1.91,2.08 -4.28,2.62 -3.04,6.81 4.65,-5.09 7.62,-13.64 15.93,-14.35 1.02,7.57 0.12,14.68 -2.22,21.15 -2.22,6.12 -8.28,10.06 -6.79,16.21 5.18,-6.3 3.14,-11.29 12.19,-19.5 2.52,2.4 3.53,7.45 3.98,11.03 0.7,5.65 -0.02,9.27 -0.68,14.46l4.93 -6.13 1.93 2.63c0.61,0.88 0.61,0.81 1.2,1.82 4.75,8.19 5.85,20.8 3.51,29.65 -1.49,5.66 -3.06,5.29 0.83,8.05 -0.34,-5.39 -0.26,-10.57 1.12,-14.92 1.41,-4.45 2.54,-8.01 5.96,-10.16 2.99,6.05 6.78,10.24 8.61,19.3 2.41,11.94 -1.86,19.17 1.75,23.13 1.48,-2.22 -1.79,-11.64 2.43,-25.63 5.03,2.36 10.94,10.8 13.78,17.58 6.19,14.76 -1.09,20.02 8.12,23.22 -1.98,-9.11 -5.78,-14.85 -2.62,-26.18 2.47,-0.85 1.03,-1.18 4.66,1.66 14.67,11.48 13.28,17.33 18.7,32.5 1.54,4.29 8.05,4.63 11.98,5.97 5.81,-4.25 22.86,-1.94 32.03,-1.94 7.96,0 26.97,-0.9 33.05,0.8 9.98,-1.58 18.48,-4.01 27.56,-7.34 3.65,-1.34 7.9,-3.98 6.16,-8.33 -1.49,-3.72 -3.38,-8.94 -3.39,-12.77l4.56 -0.31 1.32 0.62 0.89 0.87 -0.89 -0.87 -1.32 -0.62 -1.48 -0.6c-9.96,-4.11 -1.28,-12.12 5.83,-6.91 3.58,-5.22 4.31,-6.44 11.49,-3.35l1.09 0.89 -1.09 -0.89c1.4,-1.43 0.42,-0.9 2.68,-1.74 0.86,-0.31 2.49,-0.38 3.53,-0.49l1.12 0.83c-0.2,1.86 -0.65,1.53 1.15,1.21 0,-1.64 0.42,-1.28 -1.15,-1.21 0.2,-1.61 0.5,-1.25 -1.12,-0.83 -3.95,-2.75 -7.66,2.54 -6.95,-7.06 2.46,-1.61 4.81,-3.65 8.68,-1.04l1.74 -2.51c2.1,-2.95 2.11,-3.2 6.32,-3.38 2.61,-2.15 2.28,-1.94 6.35,-1.54 -2.21,-2.53 0.79,-0.43 -2.37,-1.22 -6.27,-1.56 5.3,0.21 -1.67,-0.15 -1.31,-0.07 -5.54,2.79 -4.94,-6.04 2.46,-1.6 4.38,-2.52 8.87,-1.96 0.46,-4.63 0.05,-2.91 2.59,-5.66 4.34,-4.7 -0.69,-9.41 9.57,-9.45 -0.13,-4.77 0.59,-5.47 3.49,-8.07 -1.89,-2.05 -5.52,-3.68 -4.13,-8.38 1,-3.41 6.93,-5.59 6.99,-12.79 0.04,-4.39 -5.78,-5.58 3.26,-11.61 -2.44,-7.57 0.52,-8.96 5.13,-10.77l1.82 -4.68c-5.19,2.05 -1.21,1.91 -3.69,3.5 -1.93,1.23 -3.09,1.1 -4.38,-0.91 -2.28,-3.57 1.07,-6.37 2.91,-7.98 -2.36,-3.44 -2.98,-4.26 -0.55,-8.38l-1.47 -0.5c-2.01,-0.78 -5.62,-0.69 -3.7,-6.56l1.12 -2.67c0.08,-0.55 0.29,-0.64 0.42,-0.97 -6.81,-3.92 -1.26,-14.77 6.6,-9.16 1.97,-1.48 2.48,-2.61 5.94,-3.14 -1.56,-1.84 -1.02,-1.26 -2.94,-2.83 -3.15,1.08 -8.41,2.7 -12.2,4.14 -0.25,-4.78 0.11,-4.94 2.26,-7.36 -0.44,-0.53 -1.43,-0.71 -1.84,-1.07l-1.47 -1.5 -0.16 -2.67 2.22 -0.75c6.67,0.8 2.68,0.33 4.13,-0.81l-4.13 0.81 -2.22 0.75 -0.25 1.99c0,-0.15 0.26,0.46 0.41,0.68 0.37,2.98 -0.19,0.93 1.47,1.5 -1.88,6.73 0.06,10.25 -7.47,8.59 -0.81,-2.91 -1.63,-4.47 0.35,-7.14l-2.16 -2.28c-4.1,-4.83 -1.46,-13.41 6.99,-9.09 1.31,-3.41 1.47,-3.58 5.59,-4.27 -2.21,-3.63 -1.76,-2.19 -5.4,-4.4 -2.65,1.36 -1.96,1.7 -5.38,3.52 -2.03,1.08 -3.84,1.94 -5.47,2.77l-0.46 -5.78c1.29,-0.8 1.5,-0.07 0.38,-1.12 0.6,-1.46 0.8,-1.12 -0.77,-0.89l-1.26 -1.07c0.18,-1.47 0.49,-1.08 -1.04,-1.08l1.04 1.08c-0.18,1.73 -0.54,1.3 1.26,1.07l0.77 0.89 -0.38 1.12 -0.94 3.22c-0.92,3.83 1.09,0.19 -0.96,3.87 -5.45,0.11 -6.25,-1.92 -5.38,-6.89 -4.88,-3.31 -6.08,-2.13 -3.53,-10.47 2.08,-0.89 1.8,-0.58 3.1,-0.81 7.36,-1.27 0.43,-2.47 8.36,-4.65 -5.01,-5.1 -5.75,-0.84 -13.43,5.87l-2.06 -1.73 -0.22 -3.69c1.96,-1.45 0.7,-0.69 -0.01,-1.3l0.01 1.3c-0.29,0.77 -0.46,-0.08 -0.45,2.29 0,0.15 0.26,0.85 0.27,0.71 0,-0.15 0.27,0.45 0.4,0.69 -0.15,5.12 -3.92,5.86 -6.14,2.08l-1.71 -3.47c-2.14,-2.48 -2.78,-0.37 -4.51,-3.51 -0.87,-1.57 -1.02,-4.07 -0.24,-5.83 1.59,-3.54 1.28,-0.98 4.14,-2.9 2.74,-1.84 1.4,-2.28 3.14,-3.95 1.38,-1.31 2.08,-1.36 4.38,-1.56 -1.88,-2.2 -2.03,-2.59 -6.02,-3.61l-8.82 8.18c-0.11,-0.2 -0.41,0.38 -0.6,0.55l-1.56 -2.13 0.01 -3.2 0.48 -1.36 -2.33 0.29 1.85 1.07c-0.69,1.13 -0.54,0.06 -0.69,1.97 -0.01,0.12 0.26,0.76 0.26,0.62 0,-0.15 0.28,0.41 0.42,0.61 0.91,2.91 0.92,1.26 0.3,4.36 -8.97,2.18 -2.19,-0.78 -10.64,-6.15 -1.69,-1.07 -2.23,-0.85 -2.85,-3.45 -1.48,-6.1 1.99,-5.35 4.45,-7.58 2.93,-2.67 1.12,-4.86 6.71,-5.02 1.94,3.05 0.32,0.86 0.94,2.86l1.01 3.2c-0.59,-8.4 1.63,-3 1.95,-8.74l-12.4 -0.2 0.4 -3.76 -1.91 4.48 -4.41 -0.67c-1.51,-6.14 -0.02,-4.3 0.62,-7.98 0.16,-0.98 0.24,-0.41 -0.04,-1.76l-1.15 -4.55c0.07,-1.5 3.25,-10.32 10,-3.11 2.81,-3.77 6.44,-4.12 8.32,1.01 -0.01,0.56 1.67,4.33 2.38,6.33 1.16,3.22 1.55,4.31 0.52,7.52 2.81,1.28 3.41,2.05 6.1,3.11 -0.6,-7.11 1.97,-5.5 5.04,-7.68 3.61,-2.55 3.1,-11.27 10.64,-7.33 3.35,2.87 0.99,2.47 2.92,4.2 0.02,0.02 13.16,5.98 4.79,8.97 -3.06,-1.49 -1.75,-0.94 -3.52,-0.01l3.52 0.01c-0.47,3.47 -2.3,7.47 -4.25,10.4 -0.86,1.29 -2.43,1.1 -1.25,5.14 0.75,2.54 1.97,2.54 3.8,3.48 0.98,-4.42 2.17,-5.06 6.99,-5.07 0.03,-8.26 7.12,-9.12 10.18,-4.3 4,6.3 11.48,8.83 4.31,11.29 1.93,3.07 1.09,0.61 -0.43,3.87 -0.75,1.62 -1.33,3.53 -2.26,4.9 -2.03,2.96 -6.96,3.08 -1.66,7.25 0.82,-4.67 1.2,-3.59 4.92,-4.9 5.25,-1.83 1.08,0.4 5.03,-5.05 10.19,-1.32 7.28,2.48 9.53,6.16 1.61,2.64 8.84,5.87 1.18,8.63 0.16,0.26 1.17,2.23 1.23,2.31 -3.04,1.75 -1.6,0.87 -3.9,3.89 -2.36,3.1 -1.31,1.59 -3.56,3.52 -0.67,0.57 -5.45,2.94 0.8,8.02 3.28,-3.07 2.25,-3.31 8.61,-2.4 0.67,-4.01 2.54,-6.52 7.64,-4.98 5.77,1.75 1.35,4.49 5.38,8.68 9.69,10.07 -5.59,6.71 -5.65,6.71l-1.32 -3.86 -1.54 -2.27 -1.71 1.28 -1.01 0.92 -0.79 1.27 -2.14 0.29c-1.41,-1.73 2.05,-1.07 -2.77,-1.13 -2.29,-0.04 -1.2,0.08 -2.3,0.94l5.07 0.19c0.17,0.17 0.43,0.45 0.53,0.48 0.09,0.02 0.46,0.14 0.54,0.16 3.16,0.47 -0.55,1.11 1.07,-0.93l0.79 -1.27 1.01 -0.92c3.96,0.14 1.05,-0.98 3.25,0.99l0.62 4.49 6.7 1.19c-5.45,9.41 -9.99,5.71 -12.25,14.69 3.11,-1.36 5.98,-0.9 9.27,0.07 3.12,-7.88 14.57,-3.42 9.54,5.93 3.45,1.71 5.31,3.62 2.86,8.6 -4.82,0.18 -2.19,-1.45 -7.5,-1.82l-1.28 -5.99c-1.24,-0.86 0.5,-0.52 -1.84,-0.71 -0.12,0 -0.56,0.51 -0.64,0.28 -0.1,-0.26 -0.43,0.29 -0.65,0.43l-1.41 1.31c-2.42,-1.7 -3.03,-2.48 -7.16,-2.53l7.16 2.53 1.41 -1.31 3.13 0c0.1,1.06 0.17,2.84 0.39,3.87 0.59,2.69 -0.09,0.75 0.89,2.12l4.69 2.62c-1.47,1.96 -0.18,0.39 -1.67,1.68 -9.57,8.28 -9.74,1.2 -12.47,8.59 4.5,-1.49 7,-1.44 9.55,1.75 2.18,-3.32 5.79,-4.4 9.47,-1.48 4.51,3.6 1.88,6.88 -0.04,10.11 4.34,3.28 3.47,6.39 -0.43,9.43l-2.09 -1.1c-1.33,-2.36 -0.09,-1.47 -3.57,-2.64 0.74,0.63 0.28,0.34 1.85,1.51 0.15,0.12 1.58,1.04 1.72,1.13 -0.97,4.13 0.84,1.47 -4.9,3.85 -3.61,1.5 -2.55,1.47 -6.86,1.83 2.23,1.57 3.28,1.97 4.46,4.77 10.45,-5.06 15.39,5.65 7.37,10.15 2.41,5.05 2.38,6.91 -2.36,9.55 -1.9,-0.71 -1.74,-0.71 -2.85,-2.16l-0.44 2.66 -7.95 0.79 0.95 3.19c11.17,-3.72 15.93,7.94 6.73,12.12 2.58,5.08 0.27,8.71 -2,9.2 -5.65,1.22 -2.17,0.4 -3.69,-1.5l-1.74 2.24 -11.98 -0.32 -1.12 -0.8c-0.62,-1.55 1.46,-1.28 -1.77,-1.23l1.77 1.23c-0.14,1.49 -0.42,1.12 1.12,0.8l0.99 4.39c5.05,-0.71 7.98,-1.09 10.12,3.58 2.73,5.97 0.07,8.01 -4.77,9.29 1.69,5.93 -0.79,10.13 -7.47,8.2 -1.69,1.39 -3.81,0.27 -7.89,-0.27 -3.52,-0.47 -2.02,0.06 -4.83,-1.29 -4.09,-1.98 1.59,-0.42 -3.43,-1.81 1.83,2.34 3.34,3.3 3.28,7.96 11.99,-0.32 12.32,13.88 1.83,13.01 0.14,5.81 -3.72,11.89 -8.65,6.47 -2.97,1.23 -0.83,0.29 -8.24,-2.4 -7.33,-2.66 -2.48,-3.27 -7.33,-4.99l1.37 6.93c12.19,0 10.23,15 0.66,13.02 -0.13,6.11 -4.84,11.54 -9.48,6.3 -4.72,-0.79 -0.15,0.37 -4.6,-1.93 -9.55,-4.95 -5.33,-1.18 -8.42,-7.2l-4.6 -0.06c2.04,2.72 2.91,4.78 2.15,9.87 9.48,1.33 5.99,7.83 3.82,13.7l-6.98 -0.82c-1.63,4.92 -3.27,7.14 -9.57,5.17 0.09,-1.63 0.52,-1.39 -1,-1.05l0.25 -1.29c-2.16,0 -1.93,-0.59 -1.25,1.34l1 -0.05 0.18 0.84 0.82 0.21 0.36 0.61 0.69 1 9.53 9.93c-14.2,-8.7 -7.61,-4.37 -24.56,-4.78 -7.63,-9.15 -11.8,-14.86 -26.9,-17.67l-1.1 7.86c-5.87,1.42 -58.89,1.51 -64.31,0.01l-0.52 -8.07c-6.62,0.89 -11.97,2.86 -17.34,5.89 -6.59,3.73 -5.94,5.66 -10.87,10.33l-19.86 2.12c4.86,-8.26 17.31,-13.83 20.88,-17.35zm-2.29 -238.27c4.41,-3.89 9.43,-7.45 14.01,-10.91 4.77,-3.62 9.04,-6.96 14.26,-10.77 4.81,-3.51 9.19,-7.2 14.26,-10.75 4.01,-2.81 10.69,-9.07 15.11,-10.32 5.06,5.27 21.94,16.84 27.91,21.85 9.16,7.68 18.79,13.57 27.91,21.11l55.54 42.44c0.89,7.29 -37.48,120.08 -42.15,140.09l-140.54 -0.06 -43.05 -139.89 56.74 -42.79zm257.91 108.34c3.23,-27.38 -4.51,-61.37 -12.8,-82.81 -26.59,-68.69 -93.97,-119.56 -167.77,-123.26 -54.5,-2.73 -106.77,14.76 -144.2,49.94 -124.07,116.61 -56.52,322.62 118.19,337.86 49.81,4.35 112.83,-17.91 143.33,-50.38 7.94,-8.45 15.77,-14.8 23.65,-25.33 14.16,-18.94 25.64,-40.82 32.51,-64.49 4.19,-14.47 5.21,-25.62 7.09,-41.53z"/>
   <path class="fil1" d="M264.44 234.44c0.04,-21.24 -0.41,-80.16 8.15,-96.28l8 0.05c9.07,13.14 8.27,76.27 8.46,96.26l-9.83 -0.03 -0.18 -15.82 -4.8 0.33 -0.1 15.5 -9.7 -0.01zm-120.46 0l-9.7 0.01 -0.04 -96.39c13.91,0 20.43,-2.66 23.36,10.33 1.98,8.81 5.17,39.24 -7.17,41.98 -8.16,1.81 -6.53,-1.17 -6.39,9.88 0.14,11.22 0.25,22.99 -0.06,34.19zm67.63 -96.34c21.74,-0.36 23.34,-0.01 24.7,22.22 1.09,17.71 0.92,30.27 -14.86,30.64l0.02 43.42 -9.89 0.05 0.03 -96.33zm25.79 33.17c-0.11,-45.84 20.94,-37.76 23.45,-14.42 3.44,31.92 -9.56,42.85 -11.43,59.72l11.89 0.17 0.02 17.52 -24.04 0.13c-0.65,-14.99 2.32,-28 6.8,-40.62 1.73,-4.85 10.42,-26.45 7.25,-34.16 -1.89,-4.63 1.16,-1.27 -3.72,-2.83l-0.61 19.09 -9.31 0.1 -0.3 -4.7zm-77.34 1c-0.2,-48.61 20.85,-37.56 23.37,-15.93 4.01,34.27 -12.79,50.15 -11.07,60.24l11.62 0.08 -0.06 17.76 -24.13 -0.22c-0.35,-38.79 22.47,-65.16 12.57,-77.57 -3.99,1.98 -2.56,11.64 -2.52,19.33l-9.79 0.01 0.01 -3.7zm25.9 -34.14l21.49 0.16 0.01 15.98c-2.28,1.92 -5.2,0.64 -5.8,3l-0.03 77.22 -9.84 -0.29 -0.16 -78.31 -5.6 -0.84 -0.07 -16.92zm-78.22 18.09l39.27 127.56 127.19 0.19 39.86 -127.97 -103.46 -77.69 -89.77 68.19c-2.92,2.27 -3.92,2.76 -6.37,4.66 -2.18,1.68 -4.41,3.72 -6.72,5.06z"/>
   <path class="fil2" d="M156.58 348.2l2.12 -0.92c2.73,-1.23 7.62,-4.66 9.98,-4.92 4.69,-0.52 6.78,1.93 13.6,-0.47l1.28 -4.56c-3.93,-1.34 -10.44,-1.68 -11.98,-5.97 -5.42,-15.17 -4.03,-21.02 -18.7,-32.5 -3.63,-2.84 -2.19,-2.51 -4.66,-1.66 -3.16,11.33 0.64,17.07 2.62,26.18 -9.21,-3.2 -1.93,-8.46 -8.12,-23.22 -2.84,-6.78 -8.75,-15.22 -13.78,-17.58 -4.22,13.99 -0.95,23.41 -2.43,25.63 -3.61,-3.96 0.66,-11.19 -1.75,-23.13 -1.83,-9.06 -5.62,-13.25 -8.61,-19.3 -3.42,2.15 -4.55,5.71 -5.96,10.16 -1.38,4.35 -1.46,9.53 -1.12,14.92 -3.89,-2.76 -2.32,-2.39 -0.83,-8.05 2.34,-8.85 1.24,-21.46 -3.51,-29.65 -0.59,-1.01 -0.59,-0.94 -1.2,-1.82l-1.93 -2.63 -4.93 6.13c0.66,-5.19 1.38,-8.81 0.68,-14.46 -0.45,-3.58 -1.46,-8.63 -3.98,-11.03 -9.05,8.21 -7.01,13.2 -12.19,19.5 -1.49,-6.15 4.57,-10.09 6.79,-16.21 2.34,-6.47 3.24,-13.58 2.22,-21.15 -8.31,0.71 -11.28,9.26 -15.93,14.35 -1.24,-4.19 1.13,-4.73 3.04,-6.81 6.84,-7.47 11.29,-17.34 10.48,-28.76 -2.58,-0.92 -1.42,-0.05 -4.68,0.56 3.28,-3.14 7.86,-12.02 8.51,-19.08 -4.04,0.51 -7.53,1.34 -10.65,2.92 -4,2.02 -5.23,4.27 -8.42,5.93 0.86,-5.6 7.64,-5.33 14.08,-11.27 4.23,-3.9 7.92,-8.11 9.99,-15.59l-7.6 0.08c5.17,-0.89 32.17,-19.61 1.78,-15.23l-4.11 -0.32c3.18,-1.63 11.53,-1.66 16.77,-4.12 5.2,-2.45 9.91,-5.9 12.1,-9.88l-5.67 -2.57c8.66,-4.85 12.98,-3.31 18.54,-11.62 -3.99,-2.1 -13.84,-3.09 -15.75,-4.73 5.25,-1.02 11.16,0.51 16.32,-0.66 4.75,-1.08 8.33,-3.53 11.53,-5.49 -3.09,-3.48 -8.62,-4.44 -12.34,-7.02 7.06,0.61 21.45,3.74 26.96,-3.91 -4.02,-4.02 -6.9,-3.84 -10.4,-6.54 8,3.39 20.77,4.05 26.85,-1.46 -2.08,-2.84 -5.57,-4.55 -8.68,-6.56 -0.15,-0.09 -0.45,-0.28 -0.66,-0.44 8.81,-5.15 18.35,-7.45 22.01,-18.59 -13.9,0.66 -24.63,4.84 -30.42,12.31 0.66,-8 2.45,-7.77 -0.35,-16.6 -3.82,2.38 -7.43,6.55 -9.75,11.07 -3.71,7.23 -0.35,12.05 -7.38,14.56 0.34,-3.11 1.01,-5.42 0.82,-8.62l-2.58 -7.18c-5.72,4.11 -9.99,12.64 -10.69,20.31 -0.53,5.73 0.2,5.19 -4.53,7.33 0.38,-4.55 1.23,-9.37 -0.64,-13.72l-2.14 -3.33c-3.67,2.57 -6.51,7.4 -8.33,13.17 -1.84,5.83 0.13,13.47 -2.99,17.82 -0.21,-0.25 -0.41,-1 -0.48,-0.86l-1.25 -3.65c-0.31,-1.56 -0.23,-3.15 -0.75,-5.28 -0.82,-3.32 -2.54,-5.56 -3.81,-7.72 -11.86,6.61 -5.18,27.53 -8.02,33.52 -2.02,-2.94 -1.84,-7.27 -3.14,-10.73 -1.65,-4.38 -3.09,-4.61 -4.83,-7.31 -12.04,13.97 -1.54,30.05 -4.72,34.88 -1.16,-7.79 -3.61,-12.08 -8.68,-15.84 -3.21,4.25 -4.51,13.97 -3.74,20.25 1.03,8.42 6.03,11.59 3.12,17.95 -3.41,-6.76 -6.16,-12.43 -13.42,-14.75 -3.55,25.47 8.43,26.23 8.35,36.49l-6.91 -6.92c-2.4,-2.09 -5.12,-3.59 -8.61,-4.34 -0.73,11.09 3.03,20.73 10.04,27.93 2.98,3.05 4.18,2.64 3.92,8.82 -5.94,-4.5 -7.62,-8.34 -18.79,-9.37 1.76,11.39 7.33,20.27 16.4,26.03 4.33,2.74 5.33,1.86 5.61,8.14 -7.06,-3.23 -7.38,-7.67 -20.01,-6.89 2.55,11.69 10.46,19.51 19.93,24.28 5.74,2.88 6.32,0.86 8.13,6.9 -9.45,-3.15 -10.18,-4.62 -21.23,-2.23 4.49,10.51 14.76,17.42 25.67,19.69 6.69,1.39 6.49,1.27 8.57,7 -11.2,-1.85 -13,-2.59 -22.98,1.61 1.63,3.88 8.75,9.27 14.25,11.57 10.19,4.26 13.3,2.24 23.28,3.59l1.62 3.61c-12.12,-2.61 -14.36,-0.08 -24.23,3.81 3.16,5.05 11.63,9.63 19.78,11.49 13.69,3.13 18.98,-3.96 25.45,3.72 -7.43,0.23 -13.13,1.09 -19.38,4.86 -3.23,1.96 -2.72,1.22 -4.36,4.22 5.61,4.73 15.2,7.19 23.56,7.07 4.66,-0.06 8.8,-0.92 12.77,-2.31 6.88,-2.41 5.53,-1.83 11.39,1.01l-1.48 0.75c-9.07,3.66 -15.67,4.17 -21.69,13.49 15.15,5.2 16.36,3.61 31.97,1.92z"/>
   <path class="fil3" d="M282.49 83.85l-0.4 3.76 12.4 0.2c-0.32,5.74 -2.54,0.34 -1.95,8.74 -1.22,1.49 -2.27,2.14 -3.78,3.72 0.69,4.23 0.82,1.47 2.02,3.79l2.33 -0.29 -0.48 1.36 -0.01 3.2 1.56 2.13c0.19,-0.17 0.49,-0.75 0.6,-0.55l8.82 -8.18c3.99,1.02 4.14,1.41 6.02,3.61l1.67 1.77c-1.96,5.58 0.89,1.3 -1.36,5.4 -1.7,3.08 -1.71,0.15 -3.56,5.15l3.96 1.83c0.71,0.61 1.97,-0.15 0.01,1.3l0.22 3.69 2.06 1.73c7.68,-6.71 8.42,-10.97 13.43,-5.87l2.51 1.63 -0.95 6.3c-3.92,1.51 -4.24,0.03 -4.9,3.64 1.53,0 1.22,-0.39 1.04,1.08l1.26 1.07c1.57,-0.23 1.37,-0.57 0.77,0.89 1.12,1.05 0.91,0.32 -0.38,1.12l0.46 5.78c1.63,-0.83 3.44,-1.69 5.47,-2.77 3.42,-1.82 2.73,-2.16 5.38,-3.52 3.64,2.21 3.19,0.77 5.4,4.4 3.13,4.54 1.76,2.44 1.42,8.46 -1.45,1.14 2.54,1.61 -4.13,0.81l-2.22 0.75 0.16 2.67 1.47 1.5c0.41,0.36 1.4,0.54 1.84,1.07 -2.15,2.42 -2.51,2.58 -2.26,7.36 3.79,-1.44 9.05,-3.06 12.2,-4.14 1.92,1.57 1.38,0.99 2.94,2.83 2.07,5.06 3.43,7.89 -2.08,9.09 -3.04,0.66 1.45,-0.55 -1.74,0.32 -3.55,0.97 -3.22,2.42 -0.3,5.67 -2.2,2.22 -3.68,2.02 -3.49,6.4 4.88,-1.98 5.53,-1.44 8.43,2.24 2.26,-2.18 1.88,-2.11 6.09,-1.68 1.46,12.4 -1.73,7.73 -9.1,7.89l1.12 6.41 -2.13 0.43 -1.82 4.68c5.46,0.25 4.54,1.57 7.08,4.37 6.92,-3 11.3,3.44 2,9.33 -2.1,-1.42 -3.21,-2.63 -6.94,-3.06l-0.71 5.91 -4.96 2.38c5.07,1.75 3.96,-1.15 8.18,3.05l3.31 2.76c0.24,0.11 3.38,1.02 3.8,1.15 0.05,8.03 -2.26,10.62 -6.68,13.52 -2.63,-3.87 -0.45,-3.54 -5.55,-5.3l0.41 8.29c-3.29,-1.67 -4.34,-4.12 -7.36,-0.15 0.51,1.87 2.28,0.81 4.21,2.57 2.59,2.36 1.81,2.24 1.66,5.52l5.55 1.84c-0.54,1.81 -1.22,3.89 -2.07,5.25 -2.4,3.9 -0.23,0.74 -3.4,3.28 -5.06,-1.91 -1.48,-2.34 -6.45,-5.59 -1.35,1.59 -2.4,2.58 -3.23,5.34l-5.51 -0.59c3.45,2.61 4.17,3.28 2.59,8.87 4.13,0.55 7.59,2.55 5.5,7.09 -1.63,3.54 -4.34,1.65 -8.35,2.46 -0.92,-1.59 -2.04,-4.86 -3.04,-6.72 -5.63,1.53 -2.91,4.8 -6.83,4.53 -4.07,-0.4 -3.74,-0.61 -6.35,1.54 5.68,1.88 8.03,3.95 5.29,10.03 3.08,1.19 6.14,3.29 4.16,7.07 -1.91,3.65 -4.78,2.04 -9.27,1.94 -0.05,-3.86 -0.75,-5.57 -2.22,-7.85 -3.09,1.68 -3.04,1.89 -5.48,4.84 -1.8,0.32 -1.35,0.65 -1.15,-1.21l-1.12 -0.83c-1.04,0.11 -2.67,0.18 -3.53,0.49 -2.26,0.84 -1.28,0.31 -2.68,1.74l1.09 0.89c2.16,4.18 2.29,4.96 -0.36,8.22 2.89,1.28 6.61,4.29 3.54,8.63 -2.64,3.74 -4.3,0.06 -9.88,-0.18 0.15,-4 0.89,-7.92 -2.82,-7.47 -3.43,0.41 -2.94,3.97 -5.2,2.26l-0.89 -0.87 -1.32 -0.62 -4.56 0.31c0.01,3.83 1.9,9.05 3.39,12.77 1.74,4.35 -2.51,6.99 -6.16,8.33 -9.08,3.33 -17.58,5.76 -27.56,7.34l0.97 6.45 11.89 1.33 -0.63 -1.18c9.19,-2.15 9.55,-3.07 17.72,1.23 0.9,0.83 0.57,3.46 4,6.27 3.29,2.7 3.74,1.79 5.05,5.85l0.94 1.18 1.18 0.79 1.18 0.82 0.69 1 -0.69 -1 -0.36 -0.61 -0.82 -0.21 -0.18 -0.84 -1 0.05c-0.68,-1.93 -0.91,-1.34 1.25,-1.34l1.83 -7.12 6.28 -1.82c-1.13,-3.87 -2.2,-4.53 -4.3,-6.77 3.73,-6.11 0.07,-4.35 1.71,-9.23l5.81 -0.64 4.6 0.06c3.09,6.02 -1.13,2.25 8.42,7.2 4.45,2.3 -0.12,1.14 4.6,1.93l0 -7.33c2.36,-1.86 3.95,-2.92 5.6,-4.99 -1.78,-2.3 -2.4,-2.74 -5.92,-3.8 1.36,-3.49 0.37,-5.34 -0.83,-8.32l4.88 -3.46 3.72 1.65c4.85,1.72 0,2.33 7.33,4.99 7.41,2.69 5.27,3.63 8.24,2.4l0.49 -7.79c2.8,-2.3 2.53,-1.75 3.35,-4.67 -2.17,-2.26 -2.13,-2.1 -5.99,-3.02 2.62,-6.27 -6.16,-11.52 5.69,-11.96 5.02,1.39 -0.66,-0.17 3.43,1.81 2.81,1.35 1.31,0.82 4.83,1.29 4.08,0.54 6.2,1.66 7.89,0.27 0.23,-3.05 -1.12,-4.5 -2.05,-6.39 1.78,-2.1 3.36,-3.32 3.95,-7.43l-6.8 -0.78c0.37,-6.33 -0.71,-3.86 -3.08,-7.78l1.67 -4.64 4.55 -0.47c3.23,-0.05 1.15,-0.32 1.77,1.23l1.12 0.8 11.98 0.32 1.74 -2.24c-1.42,-1.02 -0.35,-0.14 -1.7,-1.95l-2.31 -3.49c2.74,-1.92 2.98,-2.09 3.08,-6.96l-6.87 -0.44c-0.15,-6.06 -1.02,-3.21 -3.98,-7.18l1.63 -5.07c4.11,-0.34 5.75,0.68 8.16,2.08l7.95 -0.79 0.44 -2.66 -3.07 -3.38c1.16,-1.99 2.2,-3.59 2.51,-7.27l-6.81 0.18c-0.54,-6.89 -1.69,-2.1 -4.86,-7.08 0.95,-3.48 1.79,-4.63 5.61,-4.76 4.31,-0.36 3.25,-0.33 6.86,-1.83 5.74,-2.38 3.93,0.28 4.9,-3.85 -0.14,-0.09 -1.57,-1.01 -1.72,-1.13 -1.57,-1.17 -1.11,-0.88 -1.85,-1.51l-0.33 -7.29c-3.33,-0.59 -3.11,-0.39 -5.42,1.2 -6.55,-6.07 -2.87,-1.96 -6.97,-4.82l-0.17 -5.16c2.73,-7.39 2.9,-0.31 12.47,-8.59 1.49,-1.29 0.2,0.28 1.67,-1.68l-4.69 -2.62c-0.98,-1.37 -0.3,0.57 -0.89,-2.12 -0.22,-1.03 -0.29,-2.81 -0.39,-3.87l-3.13 0 -1.41 1.31 -7.16 -2.53 -1.19 -5.57c2.26,-8.98 6.8,-5.28 12.25,-14.69l-6.7 -1.19 -0.62 -4.49c-2.2,-1.97 0.71,-0.85 -3.25,-0.99l-1.01 0.92 -0.79 1.27c-1.62,2.04 2.09,1.4 -1.07,0.93 -0.08,-0.02 -0.45,-0.14 -0.54,-0.16 -0.1,-0.03 -0.36,-0.31 -0.53,-0.48l-5.07 -0.19c-2.12,-2.64 -1.68,-2.05 -2.4,-5.45 -6.25,-5.08 -1.47,-7.45 -0.8,-8.02 2.25,-1.93 1.2,-0.42 3.56,-3.52 2.3,-3.02 0.86,-2.14 3.9,-3.89 -0.06,-0.08 -1.07,-2.05 -1.23,-2.31 -1.24,-0.36 -2.59,-0.27 -2.62,-0.28 -3.4,-0.82 -1.71,-1.84 -5.19,-5.38 -4.18,1.75 -0.08,0.22 -2.66,2.09 -1.81,1.3 -0.18,0.68 -2.13,1.02 -1.86,0.33 -3.43,-0.05 -6.27,0.75l-1.79 -3.04c-5.3,-4.17 -0.37,-4.29 1.66,-7.25 0.93,-1.37 1.51,-3.28 2.26,-4.9 1.52,-3.26 2.36,-0.8 0.43,-3.87 -8.83,-0.31 -3.19,0.09 -9.3,-4.76l-2.5 4.37 -7.45 1.07 -2.23 -2.6c-1.83,-0.94 -3.05,-0.94 -3.8,-3.48 -1.18,-4.04 0.39,-3.85 1.25,-5.14 1.95,-2.93 3.78,-6.93 4.25,-10.4l-3.52 -0.01c-5.48,-0.49 -1.02,-0.48 -6.2,-3.36 0,0.01 -7.42,9.02 -13.67,5.21 -2.69,-1.06 -3.29,-1.83 -6.1,-3.11 1.03,-3.21 0.64,-4.3 -0.52,-7.52 -0.71,-2 -2.39,-5.77 -2.38,-6.33l-4.61 4.63c-2.99,0.88 -0.04,-0.24 -5.67,0.26 0.79,7.58 1.15,4.37 -1.15,7.69z"/>
   <path class="fil4" d="M107.74 156.22c2.31,-1.34 4.54,-3.38 6.72,-5.06 2.45,-1.9 3.45,-2.39 6.37,-4.66l89.77 -68.19 103.46 77.69 -39.86 127.97 -127.19 -0.19 -39.27 -127.56zm-10.19 -3.5l43.05 139.89 140.54 0.06c4.67,-20.01 43.04,-132.8 42.15,-140.09l-55.54 -42.44c-9.12,-7.54 -18.75,-13.43 -27.91,-21.11 -5.97,-5.01 -22.85,-16.58 -27.91,-21.85 -4.42,1.25 -11.1,7.51 -15.11,10.32 -5.07,3.55 -9.45,7.24 -14.26,10.75 -5.22,3.81 -9.49,7.15 -14.26,10.77 -4.58,3.46 -9.6,7.02 -14.01,10.91l-56.74 42.79z"/>
   <path class="fil4" d="M183.56 337.33l-1.28 4.56c-6.82,2.4 -8.91,-0.05 -13.6,0.47 -2.36,0.26 -7.25,3.69 -9.98,4.92l-2.12 0.92c-3.57,3.52 -16.02,9.09 -20.88,17.35l19.86 -2.12c4.93,-4.67 4.28,-6.6 10.87,-10.33 5.37,-3.03 10.72,-5 17.34,-5.89l0.52 8.07c5.42,1.5 58.44,1.41 64.31,-0.01l1.1 -7.86c15.1,2.81 19.27,8.52 26.9,17.67 16.95,0.41 10.36,-3.92 24.56,4.78l-9.53 -9.93 -0.69 -1 -1.18 -0.82 -1.18 -0.79 -0.94 -1.18c-8.69,-4.91 -13.1,-9.62 -26.14,-12.17l-11.89 -1.33 -0.97 -6.45c-6.08,-1.7 -25.09,-0.8 -33.05,-0.8 -9.17,0 -26.22,-2.31 -32.03,1.94z"/>
   <path class="fil4" d="M276.46 161.04l2.82 36.37c-0.83,4.71 1.54,2.48 -3.69,3.05 -1.21,-1.54 -1.63,1.55 -1.23,-9.18 0.37,-9.97 0.43,-20.56 2.1,-30.24zm-12.02 73.4l9.7 0.01 0.1 -15.5 4.8 -0.33 0.18 15.82 9.83 0.03c-0.19,-19.99 0.61,-83.12 -8.46,-96.26l-8 -0.05c-8.56,16.12 -8.11,75.04 -8.15,96.28z"/>
   <path class="fil1" d="M350.33 198.04l2.13 -0.43 -1.12 -6.41c7.37,-0.16 10.56,4.51 9.1,-7.89 -4.21,-0.43 -3.83,-0.5 -6.09,1.68 -2.9,-3.68 -3.55,-4.22 -8.43,-2.24 -0.19,-4.38 1.29,-4.18 3.49,-6.4 -2.92,-3.25 -3.25,-4.7 0.3,-5.67 3.19,-0.87 -1.3,0.34 1.74,-0.32 5.51,-1.2 4.15,-4.03 2.08,-9.09 -3.46,0.53 -3.97,1.66 -5.94,3.14 -7.86,-5.61 -13.41,5.24 -6.6,9.16 -0.13,0.33 -0.34,0.42 -0.42,0.97l-1.12 2.67c-1.92,5.87 1.69,5.78 3.7,6.56l1.47 0.5c-2.43,4.12 -1.81,4.94 0.55,8.38 -1.84,1.61 -5.19,4.41 -2.91,7.98 1.29,2.01 2.45,2.14 4.38,0.91 2.48,-1.59 -1.5,-1.45 3.69,-3.5zm-28.61 80.78c3.92,0.27 1.2,-3 6.83,-4.53 1,1.86 2.12,5.13 3.04,6.72 4.01,-0.81 6.72,1.08 8.35,-2.46 2.09,-4.54 -1.37,-6.54 -5.5,-7.09 1.58,-5.59 0.86,-6.26 -2.59,-8.87l5.51 0.59c0.83,-2.76 1.88,-3.75 3.23,-5.34 4.97,3.25 1.39,3.68 6.45,5.59 3.17,-2.54 1,0.62 3.4,-3.28 0.85,-1.36 1.53,-3.44 2.07,-5.25l-5.55 -1.84c0.15,-3.28 0.93,-3.16 -1.66,-5.52 -1.93,-1.76 -3.7,-0.7 -4.21,-2.57 3.02,-3.97 4.07,-1.52 7.36,0.15l-0.41 -8.29c5.1,1.76 2.92,1.43 5.55,5.3 4.42,-2.9 6.73,-5.49 6.68,-13.52 -0.42,-0.13 -3.56,-1.04 -3.8,-1.15l-3.31 -2.76c-4.22,-4.2 -3.11,-1.3 -8.18,-3.05l4.96 -2.38 0.71 -5.91c3.73,0.43 4.84,1.64 6.94,3.06 9.3,-5.89 4.92,-12.33 -2,-9.33 -2.54,-2.8 -1.62,-4.12 -7.08,-4.37 -4.61,1.81 -7.57,3.2 -5.13,10.77 -9.04,6.03 -3.22,7.22 -3.26,11.61 -0.06,7.2 -5.99,9.38 -6.99,12.79 -1.39,4.7 2.24,6.33 4.13,8.38 -2.9,2.6 -3.62,3.3 -3.49,8.07 -10.26,0.04 -5.23,4.75 -9.57,9.45 -2.54,2.75 -2.13,1.03 -2.59,5.66 -4.49,-0.56 -6.41,0.36 -8.87,1.96 -0.6,8.83 3.63,5.97 4.94,6.04 6.97,0.36 -4.6,-1.41 1.67,0.15 3.16,0.79 0.16,-1.31 2.37,1.22z"/>
   <path class="fil4" d="M237.4 171.27l0.3 4.7 9.31 -0.1 0.61 -19.09c4.88,1.56 1.83,-1.8 3.72,2.83 3.17,7.71 -5.52,29.31 -7.25,34.16 -4.48,12.62 -7.45,25.63 -6.8,40.62l24.04 -0.13 -0.02 -17.52 -11.89 -0.17c1.87,-16.87 14.87,-27.8 11.43,-59.72 -2.51,-23.34 -23.56,-31.42 -23.45,14.42z"/>
   <path class="fil4" d="M160.06 172.27l-0.01 3.7 9.79 -0.01c-0.04,-7.69 -1.47,-17.35 2.52,-19.33 9.9,12.41 -12.92,38.78 -12.57,77.57l24.13 0.22 0.06 -17.76 -11.62 -0.08c-1.72,-10.09 15.08,-25.97 11.07,-60.24 -2.52,-21.63 -23.57,-32.68 -23.37,15.93z"/>
   <path class="fil4" d="M143.75 174.38c0,-4.47 -0.97,-15.52 0.85,-19.37 3.6,0.58 3.56,0.45 4.33,3.82 0.39,1.73 0.41,4.64 0.39,6.45 -0.05,6.17 0.4,9.24 -5.57,9.1zm0.23 60.06c0.31,-11.2 0.2,-22.97 0.06,-34.19 -0.14,-11.05 -1.77,-8.07 6.39,-9.88 12.34,-2.74 9.15,-33.17 7.17,-41.98 -2.93,-12.99 -9.45,-10.33 -23.36,-10.33l0.04 96.39 9.7 -0.01z"/>
   <path class="fil4" d="M221.1 161.27c0,-4.89 -0.12,-4.31 1.5,-6.34 3.23,0.77 4.11,-0.4 4.05,10.36 -0.04,6.26 0.61,8.57 -5.53,9.36l-0.02 -13.38zm-9.52 73.16l9.89 -0.05 -0.02 -43.42c15.78,-0.37 15.95,-12.93 14.86,-30.64 -1.36,-22.23 -2.96,-22.58 -24.7,-22.22l-0.03 96.33z"/>
   <path class="fil4" d="M186.03 155.05l5.6 0.84 0.16 78.31 9.84 0.29 0.03 -77.22c0.6,-2.36 3.52,-1.08 5.8,-3l-0.01 -15.98 -21.49 -0.16 0.07 16.92z"/>
   <path class="fil1" d="M283.53 307.44l1.32 0.62 0.89 0.87c2.26,1.71 1.77,-1.85 5.2,-2.26 3.71,-0.45 2.97,3.47 2.82,7.47 5.58,0.24 7.24,3.92 9.88,0.18 3.07,-4.34 -0.65,-7.35 -3.54,-8.63 2.65,-3.26 2.52,-4.04 0.36,-8.22l-1.09 -0.89c-7.18,-3.09 -7.91,-1.87 -11.49,3.35 -7.11,-5.21 -15.79,2.8 -5.83,6.91l1.48 0.6z"/>
   <path class="fil1" d="M289.83 355.98l-0.25 1.29c1.52,-0.34 1.09,-0.58 1,1.05 6.3,1.97 7.94,-0.25 9.57,-5.17l6.98 0.82c2.17,-5.87 5.66,-12.37 -3.82,-13.7 0.76,-5.09 -0.11,-7.15 -2.15,-9.87l-5.81 0.64c-1.64,4.88 2.02,3.12 -1.71,9.23 2.1,2.24 3.17,2.9 4.3,6.77l-6.28 1.82 -1.83 7.12z"/>
   <path class="fil1" d="M318.78 339.59c4.64,5.24 9.35,-0.19 9.48,-6.3 9.57,1.98 11.53,-13.02 -0.66,-13.02l-1.37 -6.93 -3.72 -1.65 -4.88 3.46c1.2,2.98 2.19,4.83 0.83,8.32 3.52,1.06 4.14,1.5 5.92,3.8 -1.65,2.07 -3.24,3.13 -5.6,4.99l0 7.33z"/>
   <path class="fil1" d="M361.49 296.66c6.68,1.93 9.16,-2.27 7.47,-8.2 4.84,-1.28 7.5,-3.32 4.77,-9.29 -2.14,-4.67 -5.07,-4.29 -10.12,-3.58l-0.99 -4.39c-1.54,0.32 -1.26,0.69 -1.12,-0.8l-1.77 -1.23 -4.55 0.47 -1.67 4.64c2.37,3.92 3.45,1.45 3.08,7.78l6.8 0.78c-0.59,4.11 -2.17,5.33 -3.95,7.43 0.93,1.89 2.28,3.34 2.05,6.39z"/>
   <path class="fil1" d="M376.34 269.28c1.52,1.9 -1.96,2.72 3.69,1.5 2.27,-0.49 4.58,-4.12 2,-9.2 9.2,-4.18 4.44,-15.84 -6.73,-12.12l-0.95 -3.19c-2.41,-1.4 -4.05,-2.42 -8.16,-2.08l-1.63 5.07c2.96,3.97 3.83,1.12 3.98,7.18l6.87 0.44c-0.1,4.87 -0.34,5.04 -3.08,6.96l2.31 3.49c1.35,1.81 0.28,0.93 1.7,1.95z"/>
   <path class="fil1" d="M341.8 320.73c4.93,5.42 8.79,-0.66 8.65,-6.47 10.49,0.87 10.16,-13.33 -1.83,-13.01 0.06,-4.66 -1.45,-5.62 -3.28,-7.96 -11.85,0.44 -3.07,5.69 -5.69,11.96 3.86,0.92 3.82,0.76 5.99,3.02 -0.82,2.92 -0.55,2.37 -3.35,4.67l-0.49 7.79z"/>
   <path class="fil1" d="M305.58 294.35c1.62,-0.42 1.32,-0.78 1.12,0.83 1.57,-0.07 1.15,-0.43 1.15,1.21 2.44,-2.95 2.39,-3.16 5.48,-4.84 1.47,2.28 2.17,3.99 2.22,7.85 4.49,0.1 7.36,1.71 9.27,-1.94 1.98,-3.78 -1.08,-5.88 -4.16,-7.07 2.74,-6.08 0.39,-8.15 -5.29,-10.03 -4.21,0.18 -4.22,0.43 -6.32,3.38l-1.74 2.51c-3.87,-2.61 -6.22,-0.57 -8.68,1.04 -0.71,9.6 3,4.31 6.95,7.06z"/>
   <path class="fil1" d="M382.74 242.82c1.11,1.45 0.95,1.45 2.85,2.16 4.74,-2.64 4.77,-4.5 2.36,-9.55 8.02,-4.5 3.08,-15.21 -7.37,-10.15 -1.18,-2.8 -2.23,-3.2 -4.46,-4.77 -3.82,0.13 -4.66,1.28 -5.61,4.76 3.17,4.98 4.32,0.19 4.86,7.08l6.81 -0.18c-0.31,3.68 -1.35,5.28 -2.51,7.27l3.07 3.38z"/>
   <path class="fil1" d="M371.42 196.12l0.17 5.16c4.1,2.86 0.42,-1.25 6.97,4.82 2.31,-1.59 2.09,-1.79 5.42,-1.2l0.33 7.29c3.48,1.17 2.24,0.28 3.57,2.64l2.09 1.1c3.9,-3.04 4.77,-6.15 0.43,-9.43 1.92,-3.23 4.55,-6.51 0.04,-10.11 -3.68,-2.92 -7.29,-1.84 -9.47,1.48 -2.55,-3.19 -5.05,-3.24 -9.55,-1.75z"/>
   <path class="fil1" d="M302.92 88.23c6.25,3.81 13.67,-5.2 13.67,-5.21 5.18,2.88 0.72,2.87 6.2,3.36 1.77,-0.93 0.46,-1.48 3.52,0.01 8.37,-2.99 -4.77,-8.95 -4.79,-8.97 -1.93,-1.73 0.43,-1.33 -2.92,-4.2 -7.54,-3.94 -7.03,4.78 -10.64,7.33 -3.07,2.18 -5.64,0.57 -5.04,7.68z"/>
   <path class="fil1" d="M356.97 145.93c0.72,3.4 0.28,2.81 2.4,5.45 1.1,-0.86 0.01,-0.98 2.3,-0.94 4.82,0.06 1.36,-0.6 2.77,1.13l2.14 -0.29 0.79 -1.27 1.01 -0.92 1.71 -1.28 1.54 2.27 1.32 3.86c0.06,0 15.34,3.36 5.65,-6.71 -4.03,-4.19 0.39,-6.93 -5.38,-8.68 -5.1,-1.54 -6.97,0.97 -7.64,4.98 -6.36,-0.91 -5.33,-0.67 -8.61,2.4z"/>
   <path class="fil1" d="M366.7 170.45l1.19 5.57c4.13,0.05 4.74,0.83 7.16,2.53l1.41 -1.31c0.22,-0.14 0.55,-0.69 0.65,-0.43 0.08,0.23 0.52,-0.28 0.64,-0.28 2.34,0.19 0.6,-0.15 1.84,0.71l1.28 5.99c5.31,0.37 2.68,2 7.5,1.82 2.45,-4.98 0.59,-6.89 -2.86,-8.6 5.03,-9.35 -6.42,-13.81 -9.54,-5.93 -3.29,-0.97 -6.16,-1.43 -9.27,-0.07z"/>
   <path class="fil1" d="M338.81 154.15c-1.66,-0.57 -1.1,1.48 -1.47,-1.5 -0.15,-0.22 -0.41,-0.83 -0.41,-0.68l0.25 -1.99 2.22 -0.75 4.13 -0.81c0.34,-6.02 1.71,-3.92 -1.42,-8.46 -4.12,0.69 -4.28,0.86 -5.59,4.27 -8.45,-4.32 -11.09,4.26 -6.99,9.09l2.16 2.28c-1.98,2.67 -1.16,4.23 -0.35,7.14 7.53,1.66 5.59,-1.86 7.47,-8.59z"/>
   <path class="fil1" d="M341.74 123.35l1.79 3.04c2.84,-0.8 4.41,-0.42 6.27,-0.75 1.95,-0.34 0.32,0.28 2.13,-1.02 2.58,-1.87 -1.52,-0.34 2.66,-2.09 3.48,3.54 1.79,4.56 5.19,5.38 0.03,0.01 1.38,-0.08 2.62,0.28 7.66,-2.76 0.43,-5.99 -1.18,-8.63 -2.25,-3.68 0.66,-7.48 -9.53,-6.16 -3.95,5.45 0.22,3.22 -5.03,5.05 -3.72,1.31 -4.1,0.23 -4.92,4.9z"/>
   <path class="fil1" d="M324.61 105.41l2.23 2.6 7.45 -1.07 2.5 -4.37c6.11,4.85 0.47,4.45 9.3,4.76 7.17,-2.46 -0.31,-4.99 -4.31,-11.29 -3.06,-4.82 -10.15,-3.96 -10.18,4.3 -4.82,0.01 -6.01,0.65 -6.99,5.07z"/>
   <path class="fil1" d="M282.49 83.85c2.3,-3.32 1.94,-0.11 1.15,-7.69 5.63,-0.5 2.68,0.62 5.67,-0.26l4.61 -4.63c-1.88,-5.13 -5.51,-4.78 -8.32,-1.01 -6.75,-7.21 -9.93,1.61 -10,3.11l1.15 4.55c0.28,1.35 0.2,0.78 0.04,1.76 -0.64,3.68 -2.13,1.84 -0.62,7.98l4.41 0.67 1.91 -4.48z"/>
   <path class="fil1" d="M325.4 136.07l0.38 -1.12 -0.77 -0.89c-1.8,0.23 -1.44,0.66 -1.26,-1.07l-1.04 -1.08c0.66,-3.61 0.98,-2.13 4.9,-3.64l0.95 -6.3 -2.51 -1.63c-7.93,2.18 -1,3.38 -8.36,4.65 -1.3,0.23 -1.02,-0.08 -3.1,0.81 -2.55,8.34 -1.35,7.16 3.53,10.47 -0.87,4.97 -0.07,7 5.38,6.89 2.05,-3.68 0.04,-0.04 0.96,-3.87l0.94 -3.22z"/>
   <path class="fil1" d="M292.62 108.33c-0.14,-0.2 -0.42,-0.76 -0.42,-0.61 0,0.14 -0.27,-0.5 -0.26,-0.62 0.15,-1.91 0,-0.84 0.69,-1.97l-1.85 -1.07c-1.2,-2.32 -1.33,0.44 -2.02,-3.79 1.51,-1.58 2.56,-2.23 3.78,-3.72l-1.01 -3.2c-0.62,-2 1,0.19 -0.94,-2.86 -5.59,0.16 -3.78,2.35 -6.71,5.02 -2.46,2.23 -5.93,1.48 -4.45,7.58 0.62,2.6 1.16,2.38 2.85,3.45 8.45,5.37 1.67,8.33 10.64,6.15 0.62,-3.1 0.61,-1.45 -0.3,-4.36z"/>
   <path class="fil1" d="M310.56 124.48c-0.13,-0.24 -0.4,-0.84 -0.4,-0.69 -0.01,0.14 -0.27,-0.56 -0.27,-0.71 -0.01,-2.37 0.16,-1.52 0.45,-2.29l-0.01 -1.3 -3.96 -1.83c1.85,-5 1.86,-2.07 3.56,-5.15 2.25,-4.1 -0.6,0.18 1.36,-5.4l-1.67 -1.77c-2.3,0.2 -3,0.25 -4.38,1.56 -1.74,1.67 -0.4,2.11 -3.14,3.95 -2.86,1.92 -2.55,-0.64 -4.14,2.9 -0.78,1.76 -0.63,4.26 0.24,5.83 1.73,3.14 2.37,1.03 4.51,3.51l1.71 3.47c2.22,3.78 5.99,3.04 6.14,-2.08z"/>
   <path class="fil1" d="M276.46 161.04c-1.67,9.68 -1.73,20.27 -2.1,30.24 -0.4,10.73 0.02,7.64 1.23,9.18 5.23,-0.57 2.86,1.66 3.69,-3.05l-2.82 -36.37z"/>
   <path class="fil0" d="M261.5 343.97c13.04,2.55 17.45,7.26 26.14,12.17 -1.31,-4.06 -1.76,-3.15 -5.05,-5.85 -3.43,-2.81 -3.1,-5.44 -4,-6.27 -8.17,-4.3 -8.53,-3.38 -17.72,-1.23l0.63 1.18z"/>
   <path class="fil1" d="M143.75 174.38c5.97,0.14 5.52,-2.93 5.57,-9.1 0.02,-1.81 0,-4.72 -0.39,-6.45 -0.77,-3.37 -0.73,-3.24 -4.33,-3.82 -1.82,3.85 -0.85,14.9 -0.85,19.37z"/>
   <path class="fil1" d="M221.1 161.27l0.02 13.38c6.14,-0.79 5.49,-3.1 5.53,-9.36 0.06,-10.76 -0.82,-9.59 -4.05,-10.36 -1.62,2.03 -1.5,1.45 -1.5,6.34z"/>
  </g>
 </g>
</svg>
