<?xml version="1.0" encoding="UTF-8"?>
<!DOCTYPE svg PUBLIC "-//W3C//DTD SVG 1.1//EN" "http://www.w3.org/Graphics/SVG/1.1/DTD/svg11.dtd">
<!-- Creator: CorelDRAW 2018 (64-Bit) -->
<svg xmlns="http://www.w3.org/2000/svg" xml:space="preserve" width="30px" height="30px" version="1.1" style="shape-rendering:geometricPrecision; text-rendering:geometricPrecision; image-rendering:optimizeQuality; fill-rule:evenodd; clip-rule:evenodd"
viewBox="0 0 30 30"
 xmlns:xlink="http://www.w3.org/1999/xlink">
 <defs>
  <style type="text/css">
   <![CDATA[
    .fil1 {fill:#5AAC8A}
    .fil0 {fill:#FEFEFE}
   ]]>
  </style>
 </defs>
 <g id="Layer_x0020_1">
  <metadata id="CorelCorpID_0Corel-Layer"/>
  <g id="_2762327129744">
   <g id="_1293479329872">
    <circle class="fil0" cx="15.25" cy="15.25" r="10.75"/>
    <g>
     <path class="fil1" d="M17.37 19.99c-1.56,1.03 -5.54,0.95 -6.79,-2.21 -1.73,-4.38 2.87,-8.59 6.88,-6.99 2.98,1.18 3.18,4.84 1.68,6.47 -0.35,0.39 -0.88,0.77 -1.65,0.82 -0.95,0.06 -1.23,-0.28 -1.43,-1.03l-0.49 0.53c-0.12,0.1 -0.42,0.27 -0.62,0.35 -3.45,1.4 -3.79,-6.34 2.68,-4.77 -0.12,0.99 -0.68,3.06 -0.35,3.88 1.99,0.57 2.13,-3.53 0.81,-4.82 -1.37,-1.31 -4.08,-1.05 -5.35,0.21 -1.26,1.24 -2.01,3.59 -0.83,5.61 1.49,2.55 4.63,1.27 5.29,1.24l0.17 0.71zm7.06 -3.53c0.64,-5.45 -3.21,-9.71 -7.86,-10.36 -4.94,-0.7 -9.75,2.67 -10.47,7.84 -0.78,5.57 3.25,9.83 7.92,10.47 5.11,0.7 9.84,-3.09 10.41,-7.95z"/>
     <path class="fil0" d="M16.14 13.99c-0.09,0.76 -0.15,1.62 -0.48,2.22 -0.19,0.35 -0.87,1.15 -1.47,0.52 -0.44,-0.47 -0.39,-2.83 1.95,-2.74zm1.23 6l-0.17 -0.71c-0.66,0.03 -3.8,1.31 -5.29,-1.24 -1.18,-2.02 -0.43,-4.37 0.83,-5.61 1.27,-1.26 3.98,-1.52 5.35,-0.21 1.32,1.29 1.18,5.39 -0.81,4.82 -0.33,-0.82 0.23,-2.89 0.35,-3.88 -6.47,-1.57 -6.13,6.17 -2.68,4.77 0.2,-0.08 0.5,-0.25 0.62,-0.35l0.49 -0.53c0.2,0.75 0.48,1.09 1.43,1.03 0.77,-0.05 1.3,-0.43 1.65,-0.82 1.5,-1.63 1.3,-5.29 -1.68,-6.47 -4.01,-1.6 -8.61,2.61 -6.88,6.99 1.25,3.16 5.23,3.24 6.79,2.21z"/>
     <path class="fil1" d="M16.14 13.99c-2.34,-0.09 -2.39,2.27 -1.95,2.74 0.6,0.63 1.28,-0.17 1.47,-0.52 0.33,-0.6 0.39,-1.46 0.48,-2.22z"/>
    </g>
   </g>
  </g>
 </g>
</svg>
