<?xml version="1.0" encoding="UTF-8"?>
<!DOCTYPE svg PUBLIC "-//W3C//DTD SVG 1.1//EN" "http://www.w3.org/Graphics/SVG/1.1/DTD/svg11.dtd">
<!-- Creator: CorelDRAW 2018 (64-Bit) -->
<svg xmlns="http://www.w3.org/2000/svg" xml:space="preserve" width="420mm" height="297mm" version="1.1" style="shape-rendering:geometricPrecision; text-rendering:geometricPrecision; image-rendering:optimizeQuality; fill-rule:evenodd; clip-rule:evenodd"
viewBox="0 0 42000 29700"
 xmlns:xlink="http://www.w3.org/1999/xlink">
 <defs>
  <style type="text/css">
   <![CDATA[
    .fil0 {fill:#FEFEFE}
    .fil1 {fill:#5AAC8A}
    .fil2 {fill:#FEFEFE}
   ]]>
  </style>
 </defs>
 <g id="Layer_x0020_1">
  <metadata id="CorelCorpID_0Corel-Layer"/>
  <g id="_1293479329872">
   <circle class="fil0" cx="30616.39" cy="21979.77" r="1411.11"/>
   <g>
    <path class="fil1" d="M30894.9 22601.41c-205.35,135.58 -727.12,125.57 -891.17,-289 -227.54,-575.03 376.01,-1128.74 903.02,-918.66 390.79,155.78 416.79,636.45 220.79,850.12 -46.67,50.88 -116.41,101.4 -216.94,107.36 -125.52,7.43 -161.02,-36.36 -187.68,-135.47l-64.63 69.57c-15.39,12.83 -55.39,35.85 -80.83,46.18 -453.07,183.92 -498.39,-832.67 351.32,-626.78 -15.72,130.58 -88.92,402.42 -46.49,510.54 262.27,74.07 280.75,-463.78 106.27,-632.57 -178.73,-172.91 -534.32,-138.59 -702.21,27.36 -164.56,162.67 -262.95,471.32 -108.86,735.35 195.84,335.54 608.42,166.92 694.71,163.1l22.7 92.9zm926.23 -462.5c84.01,-715.98 -420.57,-1274.62 -1030.81,-1360.57 -649.6,-91.49 -1280.46,351.48 -1375.16,1030.07 -102,730.89 426.94,1289.22 1039.31,1373.64 671.58,92.58 1291.91,-406.07 1366.66,-1043.14z"/>
    <path class="fil2" d="M30732.92 21815.09c-10.83,99.16 -19.5,212.39 -62.48,290.11 -25.83,46.7 -114.77,151.13 -192.64,68.39 -58.09,-61.72 -51.79,-371.21 255.12,-358.5zm161.98 786.32l-22.7 -92.9c-86.29,3.82 -498.87,172.44 -694.71,-163.1 -154.09,-264.03 -55.7,-572.68 108.86,-735.35 167.89,-165.95 523.48,-200.27 702.21,-27.36 174.48,168.79 156,706.64 -106.27,632.57 -42.43,-108.12 30.77,-379.96 46.49,-510.54 -849.71,-205.89 -804.39,810.7 -351.32,626.78 25.44,-10.33 65.44,-33.35 80.83,-46.18l64.63 -69.57c26.66,99.11 62.16,142.9 187.68,135.47 100.53,-5.96 170.27,-56.48 216.94,-107.36 196,-213.67 170,-694.34 -220.79,-850.12 -527.01,-210.08 -1130.56,343.63 -903.02,918.66 164.05,414.57 685.82,424.58 891.17,289z"/>
    <path class="fil1" d="M30732.92 21815.09c-306.91,-12.71 -313.21,296.78 -255.12,358.5 77.87,82.74 166.81,-21.69 192.64,-68.39 42.98,-77.72 51.65,-190.95 62.48,-290.11z"/>
   </g>
  </g>
 </g>
</svg>
