<?xml version="1.0" encoding="UTF-8"?>
<!DOCTYPE svg PUBLIC "-//W3C//DTD SVG 1.1//EN" "http://www.w3.org/Graphics/SVG/1.1/DTD/svg11.dtd">
<!-- Creator: CorelDRAW 2018 (64-Bit) -->
<svg xmlns="http://www.w3.org/2000/svg" xml:space="preserve" width="420mm" height="297mm" version="1.1" style="shape-rendering:geometricPrecision; text-rendering:geometricPrecision; image-rendering:optimizeQuality; fill-rule:evenodd; clip-rule:evenodd"
viewBox="0 0 42000 29700"
 xmlns:xlink="http://www.w3.org/1999/xlink">
 <defs>
  <style type="text/css">
   <![CDATA[
    .fil0 {fill:#FEFEFE}
    .fil1 {fill:#36959D}
    .fil2 {fill:#FEFEFE}
   ]]>
  </style>
 </defs>
 <g id="Layer_x0020_1">
  <metadata id="CorelCorpID_0Corel-Layer"/>
  <g id="_1332637453024">
   <circle class="fil0" cx="14239.82" cy="13094.84" r="1411.11"/>
   <g>
    <path class="fil1" d="M14790.49 12294.2l2.35 1478.96 -1105.23 0 0.41 -956.07c10.75,-75.87 246.5,-277.97 312.97,-343.35 249.47,-245.41 107.03,-179.54 789.5,-179.54zm-1756.95 922.7c41.45,374.25 218.18,616.79 416.17,784.8 870.5,738.67 2108.85,21.8 1996.75,-1040.67 -65.97,-625.28 -624.91,-1153.3 -1337.23,-1077.73 -613.48,65.08 -1153.42,631.72 -1075.69,1333.6z"/>
    <path class="fil1" d="M14010.47 13489c-203.09,1.92 -142.6,6.18 -157.14,-32.88 22.8,-18.65 -37.01,-25.81 75.67,-28.64l320.81 1.57c275.98,0 346.47,-38.55 352.7,59.84l-592.04 0.11zm-97.49 -205.89c-89.74,-8.54 -43.84,8.03 -59.65,-34.32 22.7,-18.73 -37.06,-25.9 75.67,-28.77 35.02,-0.9 77.25,1.47 113.46,1.56 69.11,0.16 138.24,0.01 207.35,0.01 275.75,0 346.55,-38.54 352.7,59.81l-689.53 1.71zm97.49 -209c-203.06,1.91 -142.59,6.24 -157.14,-32.64 22.62,-18.83 -37.14,-26 75.67,-28.89l320.81 1.58c275.83,0 346.63,-38.55 352.7,59.84l-592.04 0.11zm-248.51 630.85l962.41 -2.32 -5.05 -1339.91 -512.51 1.7 -6.74 448.76 -444.67 0.44 6.56 891.33z"/>
    <path class="fil2" d="M13755.4 12813.63l444.67 -0.44 6.74 -448.76 512.51 -1.7 5.05 1339.91 -962.41 2.32 -6.56 -891.33zm1035.09 -519.43c-682.47,0 -540.03,-65.87 -789.5,179.54 -66.47,65.38 -302.22,267.48 -312.97,343.35l-0.41 956.07 1105.23 0 -2.35 -1478.96z"/>
    <path class="fil2" d="M13853.33 13248.79c15.81,42.35 -30.09,25.78 59.65,34.32l689.53 -1.71c-6.15,-98.35 -76.95,-59.81 -352.7,-59.81 -69.11,0 -138.24,0.15 -207.35,-0.01 -36.21,-0.09 -78.44,-2.46 -113.46,-1.56 -112.73,2.87 -52.97,10.04 -75.67,28.77z"/>
    <path class="fil2" d="M13853.33 13041.47c14.55,38.88 -45.92,34.55 157.14,32.64l592.04 -0.11c-6.07,-98.39 -76.87,-59.84 -352.7,-59.84l-320.81 -1.58c-112.81,2.89 -53.05,10.06 -75.67,28.89z"/>
    <path class="fil2" d="M13853.33 13456.12c14.54,39.06 -45.95,34.8 157.14,32.88l592.04 -0.11c-6.23,-98.39 -76.72,-59.84 -352.7,-59.84l-320.81 -1.57c-112.68,2.83 -52.87,9.99 -75.67,28.64z"/>
   </g>
  </g>
 </g>
</svg>
