<?xml version="1.0" encoding="UTF-8"?>
<!DOCTYPE svg PUBLIC "-//W3C//DTD SVG 1.1//EN" "http://www.w3.org/Graphics/SVG/1.1/DTD/svg11.dtd">
<!-- Creator: CorelDRAW 2018 (64-Bit) -->
<svg xmlns="http://www.w3.org/2000/svg" xml:space="preserve" width="30px" height="30px" version="1.1" style="shape-rendering:geometricPrecision; text-rendering:geometricPrecision; image-rendering:optimizeQuality; fill-rule:evenodd; clip-rule:evenodd"
viewBox="0 0 30 30"
 xmlns:xlink="http://www.w3.org/1999/xlink">
 <defs>
  <style type="text/css">
   <![CDATA[
    .fil1 {fill:#36959D}
    .fil0 {fill:#FEFEFE}
   ]]>
  </style>
 </defs>
 <g id="Layer_x0020_1">
  <metadata id="CorelCorpID_0Corel-Layer"/>
  <g id="_2762327136112">
   <g id="_1332637453024">
    <circle class="fil0" cx="15.22" cy="15.72" r="13.72"/>
    <g>
     <path class="fil1" d="M20.57 7.94l0.03 14.38 -10.75 0 0.01 -9.3c0.1,-0.74 2.39,-2.7 3.04,-3.34 2.42,-2.39 1.04,-1.74 7.67,-1.74zm-17.08 8.97c0.41,3.64 2.12,6 4.05,7.63 8.46,7.18 20.5,0.21 19.41,-10.12 -0.64,-6.08 -6.07,-11.21 -13,-10.48 -5.96,0.63 -11.21,6.14 -10.46,12.97z"/>
     <path class="fil1" d="M12.99 19.55c-1.97,0.02 -1.39,0.06 -1.53,-0.32 0.22,-0.18 -0.36,-0.25 0.74,-0.28l3.12 0.02c2.68,0 3.37,-0.37 3.43,0.58l-5.76 0zm-0.95 -2c-0.87,-0.08 -0.42,0.08 -0.58,-0.33 0.22,-0.18 -0.36,-0.25 0.74,-0.28 0.34,-0.01 0.75,0.01 1.1,0.01 0.67,0 1.35,0 2.02,0 2.68,0 3.37,-0.37 3.43,0.58l-6.71 0.02zm0.95 -2.03c-1.97,0.02 -1.39,0.06 -1.53,-0.32 0.22,-0.18 -0.36,-0.25 0.74,-0.28l3.12 0.02c2.68,0 3.37,-0.38 3.43,0.58l-5.76 0zm-2.42 6.13l9.36 -0.02 -0.05 -13.03 -4.98 0.02 -0.07 4.36 -4.32 0.01 0.06 8.66z"/>
     <path class="fil0" d="M10.51 12.99l4.32 -0.01 0.07 -4.36 4.98 -0.02 0.05 13.03 -9.36 0.02 -0.06 -8.66zm10.06 -5.05c-6.63,0 -5.25,-0.65 -7.67,1.74 -0.65,0.64 -2.94,2.6 -3.04,3.34l-0.01 9.3 10.75 0 -0.03 -14.38z"/>
     <path class="fil0" d="M11.46 17.22c0.16,0.41 -0.29,0.25 0.58,0.33l6.71 -0.02c-0.06,-0.95 -0.75,-0.58 -3.43,-0.58 -0.67,0 -1.35,0 -2.02,0 -0.35,0 -0.76,-0.02 -1.1,-0.01 -1.1,0.03 -0.52,0.1 -0.74,0.28z"/>
     <path class="fil0" d="M11.46 15.2c0.14,0.38 -0.44,0.34 1.53,0.32l5.76 0c-0.06,-0.96 -0.75,-0.58 -3.43,-0.58l-3.12 -0.02c-1.1,0.03 -0.52,0.1 -0.74,0.28z"/>
     <path class="fil0" d="M11.46 19.23c0.14,0.38 -0.44,0.34 1.53,0.32l5.76 0c-0.06,-0.95 -0.75,-0.58 -3.43,-0.58l-3.12 -0.02c-1.1,0.03 -0.52,0.1 -0.74,0.28z"/>
    </g>
   </g>
  </g>
 </g>
</svg>
