<?xml version="1.0" encoding="UTF-8"?>
<!DOCTYPE svg PUBLIC "-//W3C//DTD SVG 1.1//EN" "http://www.w3.org/Graphics/SVG/1.1/DTD/svg11.dtd">
<!-- Creator: CorelDRAW 2018 (64-Bit) -->
<svg xmlns="http://www.w3.org/2000/svg" xml:space="preserve" width="30px" height="30px" version="1.1" style="shape-rendering:geometricPrecision; text-rendering:geometricPrecision; image-rendering:optimizeQuality; fill-rule:evenodd; clip-rule:evenodd"
viewBox="0 0 30 30"
 xmlns:xlink="http://www.w3.org/1999/xlink">
 <defs>
  <style type="text/css">
   <![CDATA[
    .fil1 {fill:#74398F}
    .fil0 {fill:#FEFEFE}
   ]]>
  </style>
 </defs>
 <g id="Layer_x0020_1">
  <metadata id="CorelCorpID_0Corel-Layer"/>
  <g id="_2762323691024">
   <g id="_1332629963808">
    <circle class="fil0" cx="15.13" cy="15.37" r="14.37"/>
    <g>
     <path class="fil1" d="M21.65 17.91c1.44,0.73 1.16,1.55 1.16,3.39l-5.68 0.07c-0.01,-5.22 1.41,-2.93 2.71,-2.87 1,0.05 1.21,-0.37 1.81,-0.59zm-14.16 2.07c0,-1.28 0.24,-1.64 1.14,-2.03 1.26,0.36 1.32,1.11 3.02,0.18 1.68,-0.93 1.57,2.41 1.57,3.24l-5.73 0 0 -1.39zm11.86 -5.36c2.31,-0.86 3.17,2.46 1.29,3.14 -2.29,0.85 -3.34,-2.38 -1.29,-3.14zm-4.54 1.46c0,-1.52 -0.24,-2 0.33,-2.34 0.53,0.29 0.36,0.7 0.34,1.4 -0.05,2.04 1.23,1.47 1.65,2.39 0.2,0.44 0.16,0.18 -0.11,0.42 -0.3,0.32 -1.41,-0.87 -1.88,-1.17 -1.31,0.59 -1.12,1.26 -1.92,1.18l-0.24 -0.09c-0.09,-0.52 1.42,-1.4 1.83,-1.79zm-4.99 -1.46c2.12,-0.69 3.15,2.47 1.17,3.18 -2.32,0.84 -3.21,-2.52 -1.17,-3.18zm2.56 -1.3c-0.06,-5.21 1.38,-2.81 2.91,-2.84 0.82,-0.02 1.1,-0.4 1.72,-0.62 1.36,1.09 1.06,1.39 1.05,3.46l-5.68 0zm2.2 -6.68c1.98,-1.01 3.42,2.19 1.34,3.07 -1.89,0.81 -3.54,-1.95 -1.34,-3.07zm-1.4 -2.62c-6.43,1.13 -10.41,7.13 -9.41,13.24 0.92,5.65 6.42,10.73 13.4,9.44 5.6,-1.04 10.41,-6.32 9.32,-13.22 -0.89,-5.67 -6.4,-10.67 -13.31,-9.46z"/>
     <path class="fil0" d="M7.49 21.37l5.73 0c0,-0.83 0.11,-4.17 -1.57,-3.24 -1.7,0.93 -1.76,0.18 -3.02,-0.18 -0.9,0.39 -1.14,0.75 -1.14,2.03l0 1.39z"/>
     <path class="fil0" d="M12.38 13.32l5.68 0c0.01,-2.07 0.31,-2.37 -1.05,-3.46 -0.62,0.22 -0.9,0.6 -1.72,0.62 -1.53,0.03 -2.97,-2.37 -2.91,2.84z"/>
     <path class="fil0" d="M21.65 17.91c-0.6,0.22 -0.81,0.64 -1.81,0.59 -1.3,-0.06 -2.72,-2.35 -2.71,2.87l5.68 -0.07c0,-1.84 0.28,-2.66 -1.16,-3.39z"/>
     <path class="fil0" d="M19.35 14.62c-2.05,0.76 -1,3.99 1.29,3.14 1.88,-0.68 1.02,-4 -1.29,-3.14z"/>
     <path class="fil0" d="M9.82 14.62c-2.04,0.66 -1.15,4.02 1.17,3.18 1.98,-0.71 0.95,-3.87 -1.17,-3.18z"/>
     <path class="fil0" d="M14.58 6.64c-2.2,1.12 -0.55,3.88 1.34,3.07 2.08,-0.88 0.64,-4.08 -1.34,-3.07z"/>
     <path class="fil0" d="M14.81 16.08c-0.41,0.39 -1.92,1.27 -1.83,1.79l0.24 0.09c0.8,0.08 0.61,-0.59 1.92,-1.18 0.47,0.3 1.58,1.49 1.88,1.17 0.27,-0.24 0.31,0.02 0.11,-0.42 -0.42,-0.92 -1.7,-0.35 -1.65,-2.39 0.02,-0.7 0.19,-1.11 -0.34,-1.4 -0.57,0.34 -0.33,0.82 -0.33,2.34z"/>
    </g>
   </g>
  </g>
 </g>
</svg>
