<?xml version="1.0" encoding="UTF-8"?>
<!DOCTYPE svg PUBLIC "-//W3C//DTD SVG 1.1//EN" "http://www.w3.org/Graphics/SVG/1.1/DTD/svg11.dtd">
<!-- Creator: CorelDRAW 2018 (64-Bit) -->
<svg xmlns="http://www.w3.org/2000/svg" xml:space="preserve" width="420mm" height="297mm" version="1.1" style="shape-rendering:geometricPrecision; text-rendering:geometricPrecision; image-rendering:optimizeQuality; fill-rule:evenodd; clip-rule:evenodd"
viewBox="0 0 42000 29700"
 xmlns:xlink="http://www.w3.org/1999/xlink">
 <defs>
  <style type="text/css">
   <![CDATA[
    .fil0 {fill:#FEFEFE}
    .fil1 {fill:#74398F}
    .fil2 {fill:#FEFEFE}
   ]]>
  </style>
 </defs>
 <g id="Layer_x0020_1">
  <metadata id="CorelCorpID_0Corel-Layer"/>
  <g id="_1332629963808">
   <circle class="fil0" cx="26569.32" cy="16618.24" r="2146.41"/>
   <g>
    <path class="fil1" d="M27543.24 16998.05c215.01,108.43 172.92,230.52 172.92,506.53l-848.54 10.14c-1.3,-780.01 211.19,-438.02 404.43,-428.68 150.6,7.28 180.98,-55.5 271.19,-87.99zm-2115.25 308.39c0,-191.18 35.17,-244.62 170.63,-303.12 187.41,54.01 197.33,166.46 450.25,26.97 252.19,-139.07 234.62,360.91 234.62,484.33l-855.52 0 0.02 -208.18zm1772.23 -800.37c344.49,-127.75 472.25,367.3 192.7,469.83 -343.12,125.83 -499.8,-355.95 -192.7,-469.83zm-678.75 218.19c0,-227.3 -36.59,-298.63 49.46,-349.06 78.57,43.4 53.47,103.76 50.75,208.44 -7.93,304.66 184,220.44 246.42,358.02 29.58,65.21 23.6,26.45 -16.03,61.46 -45.47,47.86 -211.71,-128.95 -281.14,-173.89 -196.23,87.98 -168.03,187.49 -287.26,176.51l-36.16 -14.21c-13.07,-77.02 213.33,-209.28 273.96,-267.27zm-745.17 -218.48c316.63,-102.51 470.94,368.8 173.81,476.08 -346.15,124.99 -478.69,-377.37 -173.81,-476.08zm382.58 -194.32c-9.9,-778.29 205.59,-419.28 434.79,-423.85 122.46,-2.43 164.44,-58.93 255.78,-92.32 203.93,162.13 159.3,208.34 156.76,516.17l-847.33 0zm327.97 -997.54c296.11,-150.48 510.49,326.66 200.6,459.29 -283.29,121.24 -529.81,-291.98 -200.6,-459.29zm-209.11 -390.54c-960.79,168.5 -1555.04,1063.92 -1405.98,1977.53 137.72,844.08 959.04,1602.38 2001.73,1409.04 837.34,-155.26 1556.07,-943.36 1392.92,-1974.09 -133.95,-846.3 -956.73,-1593.46 -1988.67,-1412.48z"/>
    <path class="fil2" d="M25427.97 17514.62l855.52 0c0,-123.42 17.57,-623.4 -234.62,-484.33 -252.92,139.49 -262.84,27.04 -450.25,-26.97 -135.46,58.5 -170.63,111.94 -170.63,303.12l-0.02 208.18z"/>
    <path class="fil2" d="M26158.88 16311.46l847.33 0c2.54,-307.83 47.17,-354.04 -156.76,-516.17 -91.34,33.39 -133.32,89.89 -255.78,92.32 -229.2,4.57 -444.69,-354.44 -434.79,423.85z"/>
    <path class="fil2" d="M27543.24 16998.05c-90.21,32.49 -120.59,95.27 -271.19,87.99 -193.24,-9.34 -405.73,-351.33 -404.43,428.68l848.54 -10.14c0,-276.01 42.09,-398.1 -172.92,-506.53z"/>
    <path class="fil2" d="M27200.22 16506.07c-307.1,113.88 -150.42,595.66 192.7,469.83 279.55,-102.53 151.79,-597.58 -192.7,-469.83z"/>
    <path class="fil2" d="M25776.3 16505.78c-304.88,98.71 -172.34,601.07 173.81,476.08 297.13,-107.28 142.82,-578.59 -173.81,-476.08z"/>
    <path class="fil2" d="M26486.85 15313.92c-329.21,167.31 -82.69,580.53 200.6,459.29 309.89,-132.63 95.51,-609.77 -200.6,-459.29z"/>
    <path class="fil2" d="M26521.47 16724.26c-60.63,57.99 -287.03,190.25 -273.96,267.27l36.16 14.21c119.23,10.98 91.03,-88.53 287.26,-176.51 69.43,44.94 235.67,221.75 281.14,173.89 39.63,-35.01 45.61,3.75 16.03,-61.46 -62.42,-137.58 -254.35,-53.36 -246.42,-358.02 2.72,-104.68 27.82,-165.04 -50.75,-208.44 -86.05,50.43 -49.46,121.76 -49.46,349.06z"/>
   </g>
  </g>
 </g>
</svg>
