<?xml version="1.0" encoding="UTF-8"?>
<!DOCTYPE svg PUBLIC "-//W3C//DTD SVG 1.1//EN" "http://www.w3.org/Graphics/SVG/1.1/DTD/svg11.dtd">
<!-- Creator: CorelDRAW 2018 (64-Bit) -->
<svg xmlns="http://www.w3.org/2000/svg" xml:space="preserve" width="420mm" height="297mm" version="1.1" style="shape-rendering:geometricPrecision; text-rendering:geometricPrecision; image-rendering:optimizeQuality; fill-rule:evenodd; clip-rule:evenodd"
viewBox="0 0 42000 29700"
 xmlns:xlink="http://www.w3.org/1999/xlink">
 <defs>
  <style type="text/css">
   <![CDATA[
    .fil0 {fill:#FEFEFE}
    .fil1 {fill:#E4A414}
    .fil2 {fill:#FEFEFE}
   ]]>
  </style>
 </defs>
 <g id="Layer_x0020_1">
  <metadata id="CorelCorpID_0Corel-Layer"/>
  <g id="_1292804844720">
   <circle class="fil0" cx="25458.46" cy="20803.22" r="1411.11"/>
   <g>
    <path class="fil1" d="M25514.71 21049.44c0.62,-59.8 11.65,-152.54 -2.36,-206.84 -11.95,-46.32 -193.89,-211.17 98.67,-351.58 531.15,-254.93 1122.34,222.76 566.6,423.54 -128.1,46.28 -209.54,47.14 -351.72,42.5 -123.42,-4.04 -200.11,63.4 -311.19,92.38zm-467.02 307.3l700.45 2.29 1.06 -318.8c6.44,-62.65 -11.34,-49.03 45.52,-54.68 17.14,34.16 33.51,546.35 -23.37,587.27 -110.55,26.21 -294.67,15.12 -423.2,15.13 -122.36,0 -324.03,37.25 -349.77,-84.7l-3.68 -1291.7c11.92,-166.47 152.4,-126.13 305.6,-126.05 88.36,0.04 358.43,-11.16 426.1,5.01 62.29,14.88 76.63,46.41 80.22,122.14 6.95,146.48 14.79,165.68 -27.85,193.91 -37.95,-19.67 -4.78,12.84 -33.53,-61.26 -15.33,-39.53 7.52,-8.75 -14.32,-36.13l-682.76 0.3 -0.47 1047.27zm1616.57 -426.33c81.92,-705.47 -452.35,-1262.45 -1064.34,-1332.26 -712.85,-81.3 -1277.46,446.41 -1347.41,1064.85 -80.75,713.83 448.44,1275.81 1068.26,1345.46 524,58.88 963.76,-207.51 1194.4,-613.23 78.5,-138.1 128.18,-284.7 149.09,-464.82z"/>
    <path class="fil2" d="M25310.86 21472.64c29.64,-25.67 -34.72,-10.09 37.77,-32.23 0.02,-0.01 61.57,-3.27 63.99,-3.21 83.48,1.96 68.34,-3.81 80.09,58.84 -29.07,7.98 -57.36,10.68 -97.13,10.17 -73.55,-0.93 -54.63,9.74 -84.72,-33.57zm0 -1275.85c29.52,-25.73 -34.96,-10.06 37.75,-32.37 1.17,-0.35 60.47,-3.31 64.02,-3.23 83.5,1.98 68.37,-3.76 80.08,58.94 -73,20.02 -146.32,27.55 -181.85,-23.34zm-262.7 112.68l682.76 -0.3c21.84,27.38 -1.01,-3.4 14.32,36.13 28.75,74.1 -4.42,41.59 33.53,61.26 42.64,-28.23 34.8,-47.43 27.85,-193.91 -3.59,-75.73 -17.93,-107.26 -80.22,-122.14 -67.67,-16.17 -337.74,-4.97 -426.1,-5.01 -153.2,-0.08 -293.68,-40.42 -305.6,126.05l3.68 1291.7c25.74,121.95 227.41,84.7 349.77,84.7 128.53,-0.01 312.65,11.08 423.2,-15.13 56.88,-40.92 40.51,-553.11 23.37,-587.27 -56.86,5.65 -39.08,-7.97 -45.52,54.68l-1.06 318.8 -700.45 -2.29 0.47 -1047.27z"/>
    <path class="fil2" d="M25906.36 20794.45l-42.66 -112.84c-10.51,64.7 5.51,93.98 -37.09,118.28 -29.59,-42.34 -16.1,-150.84 0,-199.28 88.22,-5.49 62.4,27.03 90.6,116.5 44.23,-80.14 5.38,-123.57 100.79,-115.82 14.75,55.01 22.5,160.05 0,198.28 -51.97,-20.99 -14.14,53.79 -38.89,-137.7 -18.46,56.17 -21.02,119.44 -72.75,132.58zm246.84 -51.15c-16.85,-19.37 -2.6,-5.79 -22.7,-20.89 -157.84,-118.6 3.9,-149.99 58.02,-110.97l-18.5 13.43c-2.62,1.32 -7.77,3.64 -10.64,4.91 -2.91,1.29 -8.52,2.63 -11.31,3.72 -70.12,27.35 15.25,-11.81 -32.17,9.84 13.59,34.67 -30.98,11.96 83.57,57.75l-13.42 78.33c-37.56,24.68 -62.6,36.17 -118.23,7.45 29.65,-75.42 3.88,19.2 85.38,-43.57zm-462.05 -93.99c65.79,61.73 89.12,18.49 85.39,123.23 -50.58,33.95 -54.58,33.71 -132.48,24.77 27.71,-57.46 -7.43,-12.97 39.43,-36.11l47.61 -22.17c-55.79,-54.15 -66.72,-11.08 -85.46,-95.69 19.71,-29.61 31.05,-55.63 84.15,-48.58 66.93,8.88 13.25,2.19 38.49,16.68l-36.48 20.55c-23.6,10.68 -27.37,-1.12 -40.65,17.32zm-176.44 400.13c111.08,-28.98 187.77,-96.42 311.19,-92.38 142.18,4.64 223.62,3.78 351.72,-42.5 555.74,-200.78 -35.45,-678.47 -566.6,-423.54 -292.56,140.41 -110.62,305.26 -98.67,351.58 14.01,54.3 2.98,147.04 2.36,206.84z"/>
    <path class="fil1" d="M25906.36 20794.45c51.73,-13.14 54.29,-76.41 72.75,-132.58 24.75,191.49 -13.08,116.71 38.89,137.7 22.5,-38.23 14.75,-143.27 0,-198.28 -95.41,-7.75 -56.56,35.68 -100.79,115.82 -28.2,-89.47 -2.38,-121.99 -90.6,-116.5 -16.1,48.44 -29.59,156.94 0,199.28 42.6,-24.3 26.58,-53.58 37.09,-118.28l42.66 112.84z"/>
    <path class="fil1" d="M25691.15 20649.31c13.28,-18.44 17.05,-6.64 40.65,-17.32l36.48 -20.55c-25.24,-14.49 28.44,-7.8 -38.49,-16.68 -53.1,-7.05 -64.44,18.97 -84.15,48.58 18.74,84.61 29.67,41.54 85.46,95.69l-47.61 22.17c-46.86,23.14 -11.72,-21.35 -39.43,36.11 77.9,8.94 81.9,9.18 132.48,-24.77 3.73,-104.74 -19.6,-61.5 -85.39,-123.23z"/>
    <path class="fil1" d="M26153.2 20743.3c-81.5,62.77 -55.73,-31.85 -85.38,43.57 55.63,28.72 80.67,17.23 118.23,-7.45l13.42 -78.33c-114.55,-45.79 -69.98,-23.08 -83.57,-57.75 47.42,-21.65 -37.95,17.51 32.17,-9.84 2.79,-1.09 8.4,-2.43 11.31,-3.72 2.87,-1.27 8.02,-3.59 10.64,-4.91l18.5 -13.43c-54.12,-39.02 -215.86,-7.63 -58.02,110.97 20.1,15.1 5.85,1.52 22.7,20.89z"/>
    <path class="fil1" d="M25310.86 20196.79c35.53,50.89 108.85,43.36 181.85,23.34 -11.71,-62.7 3.42,-56.96 -80.08,-58.94 -3.55,-0.08 -62.85,2.88 -64.02,3.23 -72.71,22.31 -8.23,6.64 -37.75,32.37z"/>
    <path class="fil1" d="M25310.86 21472.64c30.09,43.31 11.17,32.64 84.72,33.57 39.77,0.51 68.06,-2.19 97.13,-10.17 -11.75,-62.65 3.39,-56.88 -80.09,-58.84 -2.42,-0.06 -63.97,3.2 -63.99,3.21 -72.49,22.14 -8.13,6.56 -37.77,32.23z"/>
   </g>
  </g>
 </g>
</svg>
