<?xml version="1.0" encoding="UTF-8"?>
<!DOCTYPE svg PUBLIC "-//W3C//DTD SVG 1.1//EN" "http://www.w3.org/Graphics/SVG/1.1/DTD/svg11.dtd">
<!-- Creator: CorelDRAW 2018 (64-Bit) -->
<svg xmlns="http://www.w3.org/2000/svg" xml:space="preserve" width="30px" height="30px" version="1.1" style="shape-rendering:geometricPrecision; text-rendering:geometricPrecision; image-rendering:optimizeQuality; fill-rule:evenodd; clip-rule:evenodd"
viewBox="0 0 30 30"
 xmlns:xlink="http://www.w3.org/1999/xlink">
 <defs>
  <style type="text/css">
   <![CDATA[
    .fil1 {fill:#E4A414}
    .fil0 {fill:#FEFEFE}
   ]]>
  </style>
 </defs>
 <g id="Layer_x0020_1">
  <metadata id="CorelCorpID_0Corel-Layer"/>
  <g id="_2762326547584">
   <g id="_1292804844720">
    <circle class="fil0" cx="15.06" cy="14.94" r="12.94"/>
    <g>
     <path class="fil1" d="M15.58 17.2c0,-0.55 0.11,-1.4 -0.02,-1.9 -0.11,-0.43 -1.78,-1.94 0.9,-3.22 4.87,-2.34 10.29,2.04 5.2,3.88 -1.18,0.42 -1.92,0.43 -3.23,0.39 -1.13,-0.04 -1.83,0.58 -2.85,0.85zm-4.28 2.81l6.42 0.02 0.01 -2.92c0.06,-0.57 -0.11,-0.45 0.42,-0.5 0.15,0.31 0.3,5.01 -0.22,5.38 -1.01,0.24 -2.7,0.14 -3.88,0.14 -1.12,0 -2.97,0.35 -3.21,-0.77l-0.03 -11.85c0.11,-1.52 1.4,-1.15 2.8,-1.15 0.81,0 3.29,-0.11 3.91,0.04 0.57,0.14 0.7,0.43 0.73,1.12 0.07,1.35 0.14,1.52 -0.25,1.78 -0.35,-0.18 -0.04,0.12 -0.31,-0.56 -0.14,-0.36 0.07,-0.08 -0.13,-0.33l-6.26 0 0 9.6zm14.82 -3.91c0.75,-6.46 -4.15,-11.57 -9.76,-12.21 -6.54,-0.75 -11.71,4.09 -12.35,9.76 -0.75,6.55 4.11,11.7 9.79,12.34 4.8,0.54 8.84,-1.9 10.95,-5.62 0.72,-1.27 1.18,-2.61 1.37,-4.27z"/>
     <path class="fil0" d="M13.71 21.08c0.27,-0.24 -0.32,-0.1 0.35,-0.3 0,0 0.56,-0.03 0.58,-0.03 0.77,0.02 0.63,-0.03 0.74,0.54 -0.27,0.07 -0.53,0.1 -0.89,0.09 -0.68,0 -0.51,0.09 -0.78,-0.3zm0 -11.7c0.27,-0.24 -0.32,-0.09 0.35,-0.3 0.01,0 0.55,-0.03 0.58,-0.03 0.77,0.02 0.63,-0.03 0.74,0.54 -0.67,0.18 -1.35,0.25 -1.67,-0.21zm-2.41 1.03l6.26 0c0.2,0.25 -0.01,-0.03 0.13,0.33 0.27,0.68 -0.04,0.38 0.31,0.56 0.39,-0.26 0.32,-0.43 0.25,-1.78 -0.03,-0.69 -0.16,-0.98 -0.73,-1.12 -0.62,-0.15 -3.1,-0.04 -3.91,-0.04 -1.4,0 -2.69,-0.37 -2.8,1.15l0.03 11.85c0.24,1.12 2.09,0.77 3.21,0.77 1.18,0 2.87,0.1 3.88,-0.14 0.52,-0.37 0.37,-5.07 0.22,-5.38 -0.53,0.05 -0.36,-0.07 -0.42,0.5l-0.01 2.92 -6.42 -0.02 0 -9.6z"/>
     <path class="fil0" d="M19.17 14.86l-0.39 -1.04c-0.1,0.6 0.05,0.86 -0.34,1.09 -0.27,-0.39 -0.15,-1.39 0,-1.83 0.81,-0.05 0.57,0.25 0.83,1.07 0.4,-0.74 0.05,-1.13 0.92,-1.06 0.14,0.5 0.21,1.46 0,1.81 -0.47,-0.19 -0.13,0.5 -0.35,-1.26 -0.17,0.52 -0.2,1.1 -0.67,1.22zm2.26 -0.47c-0.15,-0.18 -0.02,-0.05 -0.21,-0.19 -1.44,-1.09 0.04,-1.38 0.54,-1.02l-0.17 0.12c-0.03,0.01 -0.08,0.04 -0.1,0.05 -0.03,0.01 -0.08,0.02 -0.1,0.03 -0.65,0.25 0.13,-0.11 -0.3,0.09 0.12,0.32 -0.28,0.11 0.77,0.53l-0.13 0.72c-0.34,0.23 -0.57,0.33 -1.08,0.07 0.27,-0.69 0.03,0.17 0.78,-0.4zm-4.23 -0.86c0.6,0.56 0.81,0.17 0.78,1.13 -0.47,0.31 -0.5,0.31 -1.22,0.22 0.26,-0.52 -0.06,-0.12 0.36,-0.33l0.44 -0.2c-0.51,-0.5 -0.61,-0.1 -0.78,-0.88 0.18,-0.27 0.28,-0.51 0.77,-0.44 0.61,0.08 0.12,0.02 0.35,0.15l-0.33 0.19c-0.22,0.1 -0.25,-0.01 -0.37,0.16zm-1.62 3.67c1.02,-0.27 1.72,-0.89 2.85,-0.85 1.31,0.04 2.05,0.03 3.23,-0.39 5.09,-1.84 -0.33,-6.22 -5.2,-3.88 -2.68,1.28 -1.01,2.79 -0.9,3.22 0.13,0.5 0.02,1.35 0.02,1.9z"/>
     <path class="fil1" d="M19.17 14.86c0.47,-0.12 0.5,-0.7 0.67,-1.22 0.22,1.76 -0.12,1.07 0.35,1.26 0.21,-0.35 0.14,-1.31 0,-1.81 -0.87,-0.07 -0.52,0.32 -0.92,1.06 -0.26,-0.82 -0.02,-1.12 -0.83,-1.07 -0.15,0.44 -0.27,1.44 0,1.83 0.39,-0.23 0.24,-0.49 0.34,-1.09l0.39 1.04z"/>
     <path class="fil1" d="M17.2 13.53c0.12,-0.17 0.15,-0.06 0.37,-0.16l0.33 -0.19c-0.23,-0.13 0.26,-0.07 -0.35,-0.15 -0.49,-0.07 -0.59,0.17 -0.77,0.44 0.17,0.78 0.27,0.38 0.78,0.88l-0.44 0.2c-0.42,0.21 -0.1,-0.19 -0.36,0.33 0.72,0.09 0.75,0.09 1.22,-0.22 0.03,-0.96 -0.18,-0.57 -0.78,-1.13z"/>
     <path class="fil1" d="M21.43 14.39c-0.75,0.57 -0.51,-0.29 -0.78,0.4 0.51,0.26 0.74,0.16 1.08,-0.07l0.13 -0.72c-1.05,-0.42 -0.65,-0.21 -0.77,-0.53 0.43,-0.2 -0.35,0.16 0.3,-0.09 0.02,-0.01 0.07,-0.02 0.1,-0.03 0.02,-0.01 0.07,-0.04 0.1,-0.05l0.17 -0.12c-0.5,-0.36 -1.98,-0.07 -0.54,1.02 0.19,0.14 0.06,0.01 0.21,0.19z"/>
     <path class="fil1" d="M13.71 9.38c0.32,0.46 1,0.39 1.67,0.21 -0.11,-0.57 0.03,-0.52 -0.74,-0.54 -0.03,0 -0.57,0.03 -0.58,0.03 -0.67,0.21 -0.08,0.06 -0.35,0.3z"/>
     <path class="fil1" d="M13.71 21.08c0.27,0.39 0.1,0.3 0.78,0.3 0.36,0.01 0.62,-0.02 0.89,-0.09 -0.11,-0.57 0.03,-0.52 -0.74,-0.54 -0.02,0 -0.58,0.03 -0.58,0.03 -0.67,0.2 -0.08,0.06 -0.35,0.3z"/>
    </g>
   </g>
  </g>
 </g>
</svg>
