<?xml version="1.0" encoding="UTF-8"?>
<!DOCTYPE svg PUBLIC "-//W3C//DTD SVG 1.1//EN" "http://www.w3.org/Graphics/SVG/1.1/DTD/svg11.dtd">
<!-- Creator: CorelDRAW 2018 (64-Bit) -->
<svg xmlns="http://www.w3.org/2000/svg" xml:space="preserve" width="30px" height="30px" version="1.1" style="shape-rendering:geometricPrecision; text-rendering:geometricPrecision; image-rendering:optimizeQuality; fill-rule:evenodd; clip-rule:evenodd"
viewBox="0 0 30 30"
 xmlns:xlink="http://www.w3.org/1999/xlink">
 <defs>
  <style type="text/css">
   <![CDATA[
    .fil1 {fill:#5AAC8A}
    .fil0 {fill:#FEFEFE}
   ]]>
  </style>
 </defs>
 <g id="Layer_x0020_1">
  <metadata id="CorelCorpID_0Corel-Layer"/>
  <g id="_2762326319136">
   <g id="_1332629974064">
    <circle class="fil0" cx="15.03" cy="13.8" r="13.83"/>
    <g>
     <path class="fil1" d="M16 13c0.17,-0.66 0.07,-1.11 -0.24,-1.63 -0.74,-1.21 -0.28,-0.98 -0.15,-1.09 1.21,-1.11 2.14,3.14 0.81,4.29 -0.43,0.37 -1.13,0.35 -1.05,-0.42 0.06,-0.53 0.44,-0.42 0.63,-1.15zm2.8 1.42c-1.07,2.64 -2.8,1.95 -1.56,0.48 2.26,-2.67 -0.58,-5.21 -0.38,-6.16 1.27,-0.58 3.13,2.73 1.94,5.68zm-0.17 -6.98c1.57,0.28 3.67,4.55 1.79,8.14 -0.51,0.96 -1.05,1.83 -1.95,1.8 -0.78,-1.36 1.72,-1.33 1.61,-5.14 -0.11,-3.49 -2.62,-3.73 -1.45,-4.8zm-7.44 -1.32c0.93,-0.31 2.43,-0.27 2.66,0.58 0.11,0.39 -0.2,2.64 -0.33,3.09 -0.38,1.35 -1.79,-0.06 -2.28,1.29 -0.49,1.33 0.93,7.87 3.18,6.47 1.12,-0.7 1.59,0.18 2.17,0.82 0.41,0.46 1.4,1.28 1.01,2.19 -0.42,0.98 -2.62,2.19 -4.89,0.43 -2.5,-1.92 -6.44,-13.25 -1.52,-14.87zm2.09 -4.06c-6.9,1.09 -11.05,7.36 -10,13.65 1.85,10.93 15.46,13.06 21.15,5.44 1.67,-2.23 2.97,-5.52 2.36,-9.22 -0.58,-3.46 -2.1,-5.43 -4.4,-7.5 -1.92,-1.73 -5.72,-2.92 -9.11,-2.37z"/>
     <path class="fil0" d="M11.19 6.12c-4.92,1.62 -0.98,12.95 1.52,14.87 2.27,1.76 4.47,0.55 4.89,-0.43 0.39,-0.91 -0.6,-1.73 -1.01,-2.19 -0.58,-0.64 -1.05,-1.52 -2.17,-0.82 -2.25,1.4 -3.67,-5.14 -3.18,-6.47 0.49,-1.35 1.9,0.06 2.28,-1.29 0.13,-0.45 0.44,-2.7 0.33,-3.09 -0.23,-0.85 -1.73,-0.89 -2.66,-0.58z"/>
     <path class="fil0" d="M18.47 17.38c0.9,0.03 1.44,-0.84 1.95,-1.8 1.88,-3.59 -0.22,-7.86 -1.79,-8.14 -1.17,1.07 1.34,1.31 1.45,4.8 0.11,3.81 -2.39,3.78 -1.61,5.14z"/>
     <path class="fil0" d="M16.86 8.74c-0.2,0.95 2.64,3.49 0.38,6.16 -1.24,1.47 0.49,2.16 1.56,-0.48 1.19,-2.95 -0.67,-6.26 -1.94,-5.68z"/>
     <path class="fil0" d="M15.61 10.28c-0.13,0.11 -0.59,-0.12 0.15,1.09 0.31,0.52 0.41,0.97 0.24,1.63 -0.19,0.73 -0.57,0.62 -0.63,1.15 -0.08,0.77 0.62,0.79 1.05,0.42 1.33,-1.15 0.4,-5.4 -0.81,-4.29z"/>
    </g>
   </g>
  </g>
 </g>
</svg>
