<?xml version="1.0" encoding="UTF-8"?>
<!DOCTYPE svg PUBLIC "-//W3C//DTD SVG 1.1//EN" "http://www.w3.org/Graphics/SVG/1.1/DTD/svg11.dtd">
<!-- Creator: CorelDRAW 2018 (64-Bit) -->
<svg xmlns="http://www.w3.org/2000/svg" xml:space="preserve" width="420mm" height="297mm" version="1.1" style="shape-rendering:geometricPrecision; text-rendering:geometricPrecision; image-rendering:optimizeQuality; fill-rule:evenodd; clip-rule:evenodd"
viewBox="0 0 42000 29700"
 xmlns:xlink="http://www.w3.org/1999/xlink">
 <defs>
  <style type="text/css">
   <![CDATA[
    .fil0 {fill:#FEFEFE}
    .fil1 {fill:#5AAC8A}
    .fil2 {fill:#FEFEFE}
   ]]>
  </style>
 </defs>
 <g id="Layer_x0020_1">
  <metadata id="CorelCorpID_0Corel-Layer"/>
  <g id="_1332629974064">
   <circle class="fil0" cx="14074.28" cy="18702.77" r="1411.11"/>
   <g>
    <path class="fil1" d="M14173.18 18621.19c17.71,-67.53 7.21,-113.36 -24.65,-165.91 -75.07,-123.83 -28.51,-100.27 -15.55,-112.08 124.14,-113.22 218.44,320.45 83.07,438.03 -43.67,37.94 -115.79,36.25 -107.09,-42.42 6,-54.23 44.76,-43.43 64.22,-117.62zm285.33 145.23c-108.54,269.06 -285.61,198.55 -158.68,48.69 230.6,-272.27 -58.98,-531.32 -38.46,-628.57 129.4,-58.63 318.52,278.96 197.14,579.88zm-17.35 -712.07c160.16,28.51 374.23,463.79 182.84,829.73 -51.61,98.7 -107.08,187.25 -198.64,183.5 -80.22,-137.88 175.18,-135.43 163.55,-524.38 -10.64,-355.6 -266.27,-379.7 -147.75,-488.85zm-758.31 -135.37c94.69,-31.22 247.36,-26.65 271.26,59.88 10.82,39.17 -20.68,268.62 -33.64,314.33 -39.16,138.18 -182.71,-5.6 -233.17,132.5 -49.52,135.55 94.63,802.72 324.57,659.74 114.31,-71.08 162.29,18.24 220.94,83.28 42.84,47.52 143.57,130.52 103.54,223.35 -43.15,100.05 -266.76,223.44 -499.23,44.4 -254.9,-196.3 -656.52,-1351.88 -154.27,-1517.48zm212.54 -414.27c-703.81,112.16 -1127.37,751.67 -1019.29,1392.95 187.96,1115.23 1576.7,1332.23 2156.97,555.06 170.21,-227.96 303.13,-563.56 240.27,-940.47 -58.86,-352.97 -214.06,-554.02 -448.49,-764.99 -195.88,-176.28 -583.2,-297.73 -929.46,-242.55z"/>
    <path class="fil2" d="M13682.85 17918.98c-502.25,165.6 -100.63,1321.18 154.27,1517.48 232.47,179.04 456.08,55.65 499.23,-44.4 40.03,-92.83 -60.7,-175.83 -103.54,-223.35 -58.65,-65.04 -106.63,-154.36 -220.94,-83.28 -229.94,142.98 -374.09,-524.19 -324.57,-659.74 50.46,-138.1 194.01,5.68 233.17,-132.5 12.96,-45.71 44.46,-275.16 33.64,-314.33 -23.9,-86.53 -176.57,-91.1 -271.26,-59.88z"/>
    <path class="fil2" d="M14425.36 19067.58c91.56,3.75 147.03,-84.8 198.64,-183.5 191.39,-365.94 -22.68,-801.22 -182.84,-829.73 -118.52,109.15 137.11,133.25 147.75,488.85 11.63,388.95 -243.77,386.5 -163.55,524.38z"/>
    <path class="fil2" d="M14261.37 18186.54c-20.52,97.25 269.06,356.3 38.46,628.57 -126.93,149.86 50.14,220.37 158.68,-48.69 121.38,-300.92 -67.74,-638.51 -197.14,-579.88z"/>
    <path class="fil2" d="M14132.98 18343.2c-12.96,11.81 -59.52,-11.75 15.55,112.08 31.86,52.55 42.36,98.38 24.65,165.91 -19.46,74.19 -58.22,63.39 -64.22,117.62 -8.7,78.67 63.42,80.36 107.09,42.42 135.37,-117.58 41.07,-551.25 -83.07,-438.03z"/>
   </g>
  </g>
 </g>
</svg>
