<?xml version="1.0" encoding="UTF-8"?>
<!DOCTYPE svg PUBLIC "-//W3C//DTD SVG 1.1//EN" "http://www.w3.org/Graphics/SVG/1.1/DTD/svg11.dtd">
<!-- Creator: CorelDRAW 2018 (64-Bit) -->
<svg xmlns="http://www.w3.org/2000/svg" xml:space="preserve" width="50px" height="30px" version="1.1" style="shape-rendering:geometricPrecision; text-rendering:geometricPrecision; image-rendering:optimizeQuality; fill-rule:evenodd; clip-rule:evenodd"
viewBox="0 0 50 30"
 xmlns:xlink="http://www.w3.org/1999/xlink">
 <defs>
  <style type="text/css">
   <![CDATA[
    .fil1 {fill:#5AAC8A}
    .fil2 {fill:#E4A414}
    .fil0 {fill:#FEFEFE}
   ]]>
  </style>
 </defs>
 <g id="Layer_x0020_1">
  <metadata id="CorelCorpID_0Corel-Layer"/>
  <g id="_1473216304720">
   <g id="_2762327129744">
    <g id="_1293479329872">
     <circle class="fil0" cx="37.83" cy="13.83" r="8.33"/>
     <g>
      <path class="fil1" d="M39.48 17.51c-1.21,0.8 -4.3,0.73 -5.27,-1.72 -1.34,-3.39 2.23,-6.65 5.34,-5.41 2.31,0.91 2.46,3.75 1.3,5.01 -0.27,0.3 -0.68,0.6 -1.28,0.64 -0.74,0.04 -0.96,-0.22 -1.11,-0.8l-0.38 0.41c-0.09,0.08 -0.32,0.21 -0.48,0.27 -2.67,1.09 -2.94,-4.91 2.08,-3.7 -0.1,0.77 -0.53,2.37 -0.27,3.01 1.54,0.44 1.65,-2.74 0.62,-3.74 -1.06,-1.01 -3.16,-0.81 -4.14,0.17 -0.98,0.96 -1.56,2.78 -0.65,4.34 1.16,1.98 3.59,0.99 4.1,0.97l0.14 0.55 0 0zm5.47 -2.74c0.49,-4.22 -2.49,-7.53 -6.09,-8.03 -3.83,-0.54 -7.56,2.07 -8.12,6.08 -0.6,4.31 2.52,7.62 6.14,8.11 3.96,0.54 7.63,-2.39 8.07,-6.16z"/>
      <path class="fil0" d="M38.52 12.86c-0.07,0.58 -0.11,1.25 -0.37,1.72 -0.15,0.27 -0.67,0.89 -1.14,0.4 -0.34,-0.36 -0.3,-2.19 1.51,-2.12zm0.96 4.65l-0.14 -0.55c-0.51,0.02 -2.94,1.01 -4.1,-0.97 -0.91,-1.56 -0.33,-3.38 0.65,-4.34 0.98,-0.98 3.08,-1.18 4.14,-0.17 1.03,1 0.92,4.18 -0.62,3.74 -0.26,-0.64 0.17,-2.24 0.27,-3.01 -5.02,-1.21 -4.75,4.78 -2.08,3.7 0.16,-0.06 0.39,-0.19 0.48,-0.27l0.38 -0.41c0.15,0.58 0.37,0.84 1.11,0.8 0.6,-0.04 1.01,-0.34 1.28,-0.64 1.16,-1.26 1.01,-4.1 -1.3,-5.01 -3.11,-1.25 -6.68,2.02 -5.34,5.41 0.97,2.45 4.06,2.51 5.27,1.72l0 0z"/>
      <path class="fil1" d="M38.52 12.86c-1.81,-0.07 -1.85,1.76 -1.51,2.12 0.47,0.49 0.99,-0.13 1.14,-0.4 0.26,-0.47 0.3,-1.14 0.37,-1.72z"/>
     </g>
    </g>
   </g>
  </g>
  <g id="_1473216300240">
   <g id="_2762326547584">
    <g id="_1292804844720">
     <circle class="fil0" cx="24.2" cy="14.23" r="8.73"/>
     <g>
      <path class="fil2" d="M24.55 15.76c0,-0.37 0.08,-0.95 -0.01,-1.28 -0.07,-0.29 -1.2,-1.31 0.61,-2.18 3.28,-1.58 6.94,1.38 3.51,2.62 -0.8,0.28 -1.3,0.29 -2.18,0.26 -0.77,-0.02 -1.24,0.4 -1.93,0.58l0 0zm-2.88 1.89l4.33 0.02 0.01 -1.97c0.04,-0.39 -0.08,-0.31 0.28,-0.34 0.1,0.21 0.2,3.38 -0.15,3.63 -0.68,0.16 -1.82,0.1 -2.62,0.1 -0.75,0 -2,0.23 -2.16,-0.52l-0.03 -8c0.08,-1.03 0.95,-0.78 1.89,-0.78 0.55,0 2.23,-0.07 2.64,0.03 0.39,0.09 0.48,0.29 0.5,0.76 0.04,0.91 0.09,1.02 -0.17,1.2 -0.24,-0.12 -0.03,0.08 -0.21,-0.38 -0.1,-0.24 0.05,-0.06 -0.09,-0.22l-4.22 0 0 6.47 0 0zm10 -2.63c0.5,-4.36 -2.8,-7.81 -6.59,-8.24 -4.41,-0.51 -7.9,2.76 -8.33,6.58 -0.51,4.42 2.77,7.9 6.6,8.33 3.24,0.37 5.97,-1.28 7.39,-3.79 0.49,-0.86 0.8,-1.76 0.93,-2.88l0 0z"/>
      <path class="fil0" d="M23.29 18.38c0.18,-0.16 -0.21,-0.07 0.24,-0.21 0,0 0.38,-0.02 0.39,-0.02 0.52,0.02 0.43,-0.02 0.5,0.37 -0.18,0.05 -0.36,0.07 -0.6,0.06 -0.46,0 -0.34,0.06 -0.53,-0.2zm0 -7.9c0.18,-0.16 -0.21,-0.06 0.24,-0.2 0.01,0 0.37,-0.02 0.39,-0.02 0.52,0.01 0.43,-0.02 0.5,0.36 -0.45,0.12 -0.91,0.17 -1.13,-0.14zm-1.62 0.7l4.22 0c0.14,0.16 -0.01,-0.02 0.09,0.22 0.18,0.46 -0.03,0.26 0.21,0.38 0.26,-0.18 0.21,-0.29 0.17,-1.2 -0.02,-0.47 -0.11,-0.67 -0.5,-0.76 -0.41,-0.1 -2.09,-0.03 -2.64,-0.03 -0.94,0 -1.81,-0.25 -1.89,0.78l0.03 8c0.16,0.75 1.41,0.52 2.16,0.52 0.8,0 1.94,0.06 2.62,-0.1 0.35,-0.25 0.25,-3.42 0.15,-3.63 -0.36,0.03 -0.24,-0.05 -0.28,0.34l-0.01 1.97 -4.33 -0.02 0 -6.47 0 0z"/>
      <path class="fil0" d="M26.98 14.18l-0.27 -0.7c-0.06,0.4 0.04,0.58 -0.23,0.73 -0.18,-0.26 -0.1,-0.94 0,-1.23 0.55,-0.04 0.39,0.17 0.56,0.72 0.27,-0.5 0.04,-0.76 0.62,-0.72 0.1,0.34 0.15,0.99 0,1.23 -0.31,-0.13 -0.08,0.33 -0.23,-0.85 -0.12,0.35 -0.14,0.74 -0.45,0.82l0 0zm1.52 -0.32c-0.1,-0.12 -0.01,-0.03 -0.14,-0.13 -0.97,-0.73 0.03,-0.93 0.37,-0.68l-0.12 0.08c-0.02,0 -0.05,0.02 -0.07,0.03 -0.02,0.01 -0.05,0.01 -0.07,0.02 -0.43,0.17 0.09,-0.07 -0.2,0.06 0.08,0.22 -0.19,0.07 0.52,0.36l-0.09 0.49c-0.23,0.15 -0.38,0.22 -0.72,0.04 0.18,-0.46 0.02,0.12 0.52,-0.27l0 0zm-2.85 -0.58c0.4,0.38 0.54,0.12 0.52,0.76 -0.31,0.21 -0.33,0.21 -0.82,0.15 0.18,-0.35 -0.04,-0.08 0.24,-0.22l0.3 -0.13c-0.34,-0.34 -0.41,-0.07 -0.53,-0.6 0.13,-0.18 0.19,-0.34 0.52,-0.3 0.42,0.06 0.08,0.02 0.24,0.11l-0.22 0.12c-0.15,0.07 -0.17,0 -0.25,0.11l0 0zm-1.1 2.48c0.69,-0.18 1.16,-0.6 1.93,-0.58 0.88,0.03 1.38,0.02 2.18,-0.26 3.43,-1.24 -0.23,-4.2 -3.51,-2.62 -1.81,0.87 -0.68,1.89 -0.61,2.18 0.09,0.33 0.01,0.91 0.01,1.28l0 0z"/>
      <path class="fil2" d="M26.98 14.18c0.31,-0.08 0.33,-0.47 0.45,-0.82 0.15,1.18 -0.08,0.72 0.24,0.85 0.14,-0.24 0.09,-0.89 0,-1.22 -0.59,-0.05 -0.36,0.21 -0.63,0.71 -0.17,-0.55 -0.01,-0.76 -0.56,-0.72 -0.1,0.29 -0.18,0.97 0,1.23 0.27,-0.15 0.17,-0.33 0.23,-0.73l0.27 0.7 0 0z"/>
      <path class="fil2" d="M25.65 13.28c0.08,-0.11 0.1,-0.04 0.25,-0.11l0.22 -0.12c-0.16,-0.09 0.18,-0.05 -0.24,-0.11 -0.33,-0.04 -0.39,0.12 -0.52,0.3 0.12,0.53 0.19,0.26 0.53,0.59l-0.3 0.14c-0.28,0.14 -0.06,-0.13 -0.24,0.22 0.49,0.06 0.51,0.06 0.82,-0.15 0.02,-0.64 -0.12,-0.38 -0.52,-0.76l0 0z"/>
      <path class="fil2" d="M28.5 13.86c-0.5,0.39 -0.34,-0.19 -0.52,0.27 0.34,0.18 0.49,0.11 0.73,-0.04l0.08 -0.49c-0.71,-0.29 -0.44,-0.14 -0.52,-0.36 0.29,-0.13 -0.23,0.11 0.2,-0.06 0.02,-0.01 0.05,-0.01 0.07,-0.02 0.02,-0.01 0.05,-0.03 0.07,-0.03l0.12 -0.08c-0.34,-0.25 -1.34,-0.05 -0.37,0.68 0.13,0.1 0.04,0.01 0.14,0.13l0 0z"/>
      <path class="fil2" d="M23.29 10.48c0.22,0.31 0.68,0.26 1.13,0.14 -0.07,-0.38 0.02,-0.35 -0.5,-0.36 -0.02,0 -0.38,0.02 -0.39,0.02 -0.45,0.14 -0.06,0.04 -0.24,0.2z"/>
      <path class="fil2" d="M23.29 18.38c0.18,0.26 0.07,0.2 0.53,0.2 0.24,0.01 0.42,-0.01 0.6,-0.06 -0.07,-0.39 0.02,-0.35 -0.5,-0.37 -0.01,0 -0.39,0.02 -0.39,0.02 -0.45,0.14 -0.06,0.05 -0.24,0.21z"/>
     </g>
    </g>
   </g>
  </g>
  <g id="_1473216315984">
   <g id="_2762326319136">
    <g id="_1332629974064">
     <circle class="fil0" cx="12.56" cy="14.56" r="8.06"/>
     <g>
      <path class="fil1" d="M13.12 14.09c0.1,-0.38 0.04,-0.64 -0.13,-0.95 -0.44,-0.7 -0.17,-0.57 -0.09,-0.63 0.7,-0.65 1.24,1.83 0.47,2.5 -0.25,0.22 -0.66,0.2 -0.61,-0.24 0.03,-0.31 0.25,-0.25 0.36,-0.68zm1.64 0.83c-0.63,1.54 -1.64,1.14 -0.91,0.28 1.31,-1.55 -0.34,-3.03 -0.22,-3.59 0.74,-0.34 1.82,1.59 1.13,3.31zm-0.1 -4.07c0.91,0.17 2.14,2.66 1.04,4.75 -0.3,0.56 -0.61,1.06 -1.14,1.05 -0.45,-0.79 1.01,-0.78 0.94,-3 -0.06,-2.03 -1.52,-2.17 -0.84,-2.8l0 0zm-4.34 -0.76c0.54,-0.18 1.42,-0.16 1.55,0.33 0.07,0.23 -0.12,1.54 -0.19,1.8 -0.22,0.79 -1.04,-0.03 -1.33,0.76 -0.29,0.77 0.54,4.58 1.85,3.77 0.66,-0.41 0.93,0.1 1.27,0.47 0.24,0.27 0.81,0.75 0.59,1.28 -0.25,0.57 -1.53,1.28 -2.85,0.25 -1.46,-1.12 -3.76,-7.72 -0.89,-8.66l0 0zm1.22 -2.37c-4.02,0.63 -6.44,4.29 -5.83,7.95 1.08,6.37 9.01,7.62 12.33,3.18 0.97,-1.3 1.73,-3.22 1.37,-5.38 -0.33,-2.02 -1.22,-3.16 -2.56,-4.37 -1.12,-1.01 -3.34,-1.7 -5.31,-1.38l0 0z"/>
      <path class="fil0" d="M10.32 10.09c-2.87,0.94 -0.57,7.54 0.89,8.66 1.32,1.03 2.6,0.32 2.85,-0.25 0.22,-0.53 -0.35,-1.01 -0.59,-1.28 -0.34,-0.37 -0.61,-0.88 -1.27,-0.47 -1.31,0.81 -2.13,-3 -1.85,-3.77 0.29,-0.79 1.11,0.03 1.33,-0.76 0.07,-0.26 0.26,-1.57 0.19,-1.8 -0.13,-0.49 -1.01,-0.51 -1.55,-0.34l0 0.01z"/>
      <path class="fil0" d="M14.56 16.65c0.53,0.01 0.84,-0.49 1.14,-1.05 1.1,-2.09 -0.13,-4.58 -1.04,-4.75 -0.68,0.63 0.78,0.77 0.84,2.8 0.07,2.22 -1.39,2.2 -0.94,3l0 0z"/>
      <path class="fil0" d="M13.63 11.61c-0.12,0.56 1.53,2.04 0.22,3.59 -0.73,0.86 0.28,1.26 0.91,-0.28 0.69,-1.72 -0.39,-3.65 -1.13,-3.31z"/>
      <path class="fil0" d="M12.9 12.51c-0.08,0.06 -0.35,-0.07 0.09,0.63 0.17,0.31 0.23,0.57 0.13,0.96 -0.11,0.42 -0.33,0.36 -0.36,0.67 -0.05,0.44 0.36,0.46 0.61,0.24 0.77,-0.67 0.23,-3.15 -0.47,-2.5z"/>
     </g>
    </g>
   </g>
  </g>
 </g>
</svg>
