<?xml version="1.0" encoding="UTF-8"?>
<!DOCTYPE svg PUBLIC "-//W3C//DTD SVG 1.1//EN" "http://www.w3.org/Graphics/SVG/1.1/DTD/svg11.dtd">
<!-- Creator: CorelDRAW 2018 (64-Bit) -->
<svg xmlns="http://www.w3.org/2000/svg" xml:space="preserve" width="30px" height="30px" version="1.1" style="shape-rendering:geometricPrecision; text-rendering:geometricPrecision; image-rendering:optimizeQuality; fill-rule:evenodd; clip-rule:evenodd"
viewBox="0 0 30 30"
 xmlns:xlink="http://www.w3.org/1999/xlink">
 <defs>
  <style type="text/css">
   <![CDATA[
    .fil1 {fill:#5AAC8A}
    .fil0 {fill:#FEFEFE}
   ]]>
  </style>
 </defs>
 <g id="Layer_x0020_1">
  <metadata id="CorelCorpID_0Corel-Layer"/>
  <g id="_2762379404944">
   <g id="_1332618871008">
    <circle class="fil0" cx="15.51" cy="15.49" r="12.99"/>
    <g>
     <path class="fil1" d="M12.08 17.61c0.8,0.07 1.03,1.54 1.01,1.83 -0.04,0.51 -0.06,0.35 -0.36,0.55 -0.27,-0.25 -0.1,0.15 -0.24,-0.49l-0.33 -1.25c-0.13,-0.34 -0.35,-0.41 -0.08,-0.64zm4.89 -1.94c0.03,-1.27 1.05,-1.93 1.43,-3.03l1.21 0.02c0,0.5 -0.02,1.03 -0.02,1.53 0.01,0.76 -0.12,0.76 0.5,0.79l0 0.69c-0.73,0.06 -0.42,0.05 -0.52,0.94l-0.8 0 -0.07 -0.94 -1.73 0zm-6.2 2.23l1.13 0.01c0.21,0.62 0.5,1.31 0.37,2.11 -1.53,0.25 -1.91,-0.11 -2.42,-1.21 -0.88,-1.88 -1.5,-6.49 0.37,-7.15l1.27 -0.22c0.17,0.35 0.36,0.85 0.42,1.34 0.16,1.28 -0.16,1.08 -0.28,1.14 -0.44,-0.46 -0.01,-1.2 -0.52,-1.94 0.04,0.76 0.24,1.04 0.14,1.89 -1.17,0.21 -1.22,0.29 -1.09,1.71 0.08,0.86 0.33,1.68 0.61,2.32zm0.36 -6.08c-0.01,-0.54 -0.29,-0.05 -0.09,-0.01 0,0 0.1,0.47 0.09,0.01zm5.34 4.06l0 0.73 -2.76 -0.05c-0.08,-1.35 2.25,-1.35 1.66,-3.12 -0.59,-0.19 -0.92,0.01 -1.42,0.12l-0.15 -0.57c1.5,-1.15 3.51,0.25 2.24,1.84 -0.15,0.18 -0.26,0.26 -0.43,0.45l-0.45 0.58 1.31 0.02zm-1.1 -5.94c0.01,-0.02 0.01,-0.07 0.01,-0.08l-0.01 -0.58c2.8,1.03 4.33,0.9 5.59,3.26 0.56,1.05 0.78,2.43 0.43,3.69 -0.32,1.13 -1.11,2.26 -1.83,2.6l0.33 0.55c0.02,-0.02 0.06,0.06 0.09,0.09 -1.45,0.06 -2.49,0.54 -3.71,0.49 -0.89,-0.03 -2.54,-0.53 -2.88,-1.15 0.62,0.02 1.6,0.94 3.29,0.89 1.54,-0.05 2.04,-0.91 2.74,-1.62 -0.16,0.89 0.05,0.34 0.26,0.53 0.54,-0.67 1.2,-1.35 1.49,-2.6 0.55,-2.37 -0.58,-4.46 -2.63,-5.46 -1.21,-0.6 -2.05,-0.22 -3.17,0.25 -0.01,-0.03 -0.02,-0.08 -0.02,-0.09 0,-0.02 -0.01,-0.07 -0.01,-0.09l0.03 -0.37c-1.39,0.31 -2.7,1.3 -3.03,2.37 -0.07,-0.11 -0.47,0.19 -0.05,-0.64l1.13 -1.09c0.66,-0.56 1.08,-0.64 1.95,-0.95zm11.17 7.16c1.04,-6.73 -3.68,-11.85 -9.26,-12.79 -6.64,-1.12 -11.89,3.77 -12.8,9.23 -1.12,6.72 3.74,11.92 9.25,12.83 5.89,0.97 11.85,-3.08 12.81,-9.27z"/>
     <path class="fil0" d="M11.04 11.81c-0.2,-0.04 0.08,-0.53 0.09,0.01 0.01,0.46 -0.09,-0.01 -0.09,-0.01zm-0.27 6.09c-0.28,-0.64 -0.53,-1.46 -0.61,-2.32 -0.13,-1.42 -0.08,-1.5 1.09,-1.71 0.1,-0.85 -0.1,-1.13 -0.14,-1.89 0.51,0.74 0.08,1.48 0.52,1.94 0.12,-0.06 0.44,0.14 0.28,-1.14 -0.06,-0.49 -0.25,-0.99 -0.42,-1.34l-1.27 0.22c-1.87,0.66 -1.25,5.27 -0.37,7.15 0.51,1.1 0.89,1.46 2.42,1.21 0.13,-0.8 -0.16,-1.49 -0.37,-2.11l-1.13 -0.01z"/>
     <path class="fil0" d="M15.37 9.94c-0.87,0.31 -1.29,0.39 -1.95,0.95l-1.13 1.09c-0.42,0.83 -0.02,0.53 0.05,0.64 0.33,-1.07 1.64,-2.06 3.03,-2.37l-0.03 0.37c0,0.02 0.01,0.07 0.01,0.09 0,0.01 0.01,0.06 0.02,0.09 1.12,-0.47 1.96,-0.85 3.17,-0.25 2.05,1 3.18,3.09 2.63,5.46 -0.29,1.25 -0.95,1.93 -1.49,2.6 -0.21,-0.19 -0.42,0.36 -0.26,-0.53 -0.7,0.71 -1.2,1.57 -2.74,1.62 -1.69,0.05 -2.67,-0.87 -3.29,-0.89 0.34,0.62 1.99,1.12 2.88,1.15 1.22,0.05 2.26,-0.43 3.71,-0.49 -0.03,-0.03 -0.07,-0.11 -0.09,-0.09l-0.33 -0.55c0.72,-0.34 1.51,-1.47 1.83,-2.6 0.35,-1.26 0.13,-2.64 -0.43,-3.69 -1.26,-2.36 -2.79,-2.23 -5.59,-3.26l0.01 0.58c0,0.01 0,0.06 -0.01,0.08z"/>
     <path class="fil0" d="M17.93 14.98c0.06,-0.38 0.53,-1.07 0.81,-1.51l-0.07 1.5 -0.74 0.01zm-0.96 0.69l1.73 0 0.07 0.94 0.8 0c0.1,-0.89 -0.21,-0.88 0.52,-0.94l0 -0.69c-0.62,-0.03 -0.49,-0.03 -0.5,-0.79 0,-0.5 0.02,-1.03 0.02,-1.53l-1.21 -0.02c-0.38,1.1 -1.4,1.76 -1.43,3.03z"/>
     <path class="fil0" d="M13.8 12.99l0.15 0.57c0.5,-0.11 0.83,-0.31 1.42,-0.12 0.59,1.77 -1.74,1.77 -1.66,3.12l2.76 0.05 0 -0.73 -1.31 -0.02 0.45 -0.58c0.17,-0.19 0.28,-0.27 0.43,-0.45 1.27,-1.59 -0.74,-2.99 -2.24,-1.84z"/>
     <path class="fil0" d="M13.09 19.44c0.02,-0.29 -0.21,-1.76 -1.01,-1.83 -0.27,0.23 -0.05,0.3 0.08,0.64l0.33 1.25c0.14,0.64 -0.03,0.24 0.24,0.49 0.3,-0.2 0.32,-0.04 0.36,-0.55z"/>
     <path class="fil1" d="M17.93 14.98l0.74 -0.01 0.07 -1.5c-0.28,0.44 -0.75,1.13 -0.81,1.51z"/>
    </g>
   </g>
  </g>
 </g>
</svg>
