<?xml version="1.0" encoding="UTF-8"?>
<!DOCTYPE svg PUBLIC "-//W3C//DTD SVG 1.1//EN" "http://www.w3.org/Graphics/SVG/1.1/DTD/svg11.dtd">
<!-- Creator: CorelDRAW 2018 (64-Bit) -->
<svg xmlns="http://www.w3.org/2000/svg" xml:space="preserve" width="420mm" height="297mm" version="1.1" style="shape-rendering:geometricPrecision; text-rendering:geometricPrecision; image-rendering:optimizeQuality; fill-rule:evenodd; clip-rule:evenodd"
viewBox="0 0 42000 29700"
 xmlns:xlink="http://www.w3.org/1999/xlink">
 <defs>
  <style type="text/css">
   <![CDATA[
    .fil0 {fill:#FEFEFE}
    .fil1 {fill:#74398F}
    .fil2 {fill:#FEFEFE}
   ]]>
  </style>
 </defs>
 <g id="Layer_x0020_1">
  <metadata id="CorelCorpID_0Corel-Layer"/>
  <g id="_1332612198912">
   <circle class="fil0" cx="22806.34" cy="17810.56" r="1411.11"/>
   <g>
    <path class="fil1" d="M22334.6 18354.06c36.41,-34.48 67.48,-67.87 122.31,-91.82l134.48 235.85c-108.87,-32.72 -164.61,-55.4 -256.79,-144.03zm685.53 142.82c20,-32.77 46.98,-67.03 72.52,-112.66 25.54,-45.63 35.18,-98.32 66.01,-136.59 66.52,27.72 90.7,38.82 134.61,90.48 -43.68,76.08 -194.71,146.31 -273.14,158.77zm-188.57 27.31l0.01 -353.81c94.62,-16.79 188.31,16.77 271.99,47.4 -6.31,65.32 -117.64,340.23 -272,306.41zm-321.25 -281.76c55.43,-56.28 173.99,-70.81 265.72,-78.29l1.73 369.99c-149.05,-11.65 -221.4,-151.61 -267.45,-291.7zm-427.38 -404.26l312.75 0c4.15,148.96 32.79,238.95 48.02,372.58 -77.25,28.91 -96.91,66.05 -173.09,101.34 -83.48,-117.48 -174.44,-258.37 -187.68,-473.92zm1272.99 457.85c-70.76,-25.2 -104.37,-73.69 -184.12,-100.7l51.95 -356.16 305.47 -0.99c-16.58,272.51 -103.3,320.64 -173.3,457.85zm-222.11 -129.74c-54.38,-12.49 -92.69,-29.69 -146.02,-39.84 -189.75,-36.12 -156.15,57.2 -156.15,-288.27l340.56 0.78 -38.39 327.33zm-693.99 -328.11l338.06 0 -1.31 273.55c-123.32,9.26 -187.61,33.87 -289.37,66.49 -22.65,-104.65 -43.75,-222.81 -47.38,-340.04zm694.69 -384.11l37.66 330.35 -340.77 -10.21 2.09 -253.1 301.02 -67.04zm-649.43 -11.81c112.98,31.53 157.86,58.04 291.58,67.59l0.93 62.76 0.04 211.5 -345.21 -1.06 52.66 -340.79zm685.3 -16.59c74.1,-25.23 110.27,-76.72 187,-100.25 78.34,158.7 156.15,200.34 172.13,458.69l-305.68 -1 -53.45 -357.44zm-1087.73 358.44c14.33,-238.73 94.84,-349.79 204.94,-475.46 45.36,38.52 92.55,76.48 157.96,101.35 -18.82,134.89 -45.89,223.5 -50.44,374.11l-312.46 0zm748.99 -696.48c149.38,11.75 240.82,164.09 275.62,312.76 -76.33,36.97 -171.02,53.81 -274.88,58.32l-0.74 -371.08zm-320.89 293.61c36.97,-139.33 121.83,-282.46 267.27,-293.9l-4.41 369.98c-92.66,-7.95 -201.25,-24.76 -262.86,-76.08zm647.91 -7.11l-136.27 -249.49c123.94,26.16 189.78,96.39 272.97,137.24 -26.14,61.04 -63.71,85.27 -136.7,112.25zm-822.89 -104.53c40.46,-66.63 187.03,-131.41 254.11,-145.95 -17.81,38.68 -3.32,9.24 -18.81,35.74l-114.16 199.92c-43.3,-21.61 -89.61,-45.98 -121.14,-89.71zm337.17 -664.59c-623.97,71.41 -1153.76,630.07 -1072.04,1345.13 70.6,617.79 636.94,1149.2 1346.48,1065.44 619.03,-73.08 1147.28,-625.7 1064.1,-1343.31 -71.18,-614.11 -630.17,-1148.32 -1338.54,-1067.26z"/>
    <path class="fil2" d="M22082.65 17784.1l312.46 0c4.55,-150.61 31.62,-239.22 50.44,-374.11 -65.41,-24.87 -112.6,-62.83 -157.96,-101.35 -110.1,125.67 -190.61,236.73 -204.94,475.46z"/>
    <path class="fil2" d="M22270.61 18312.09c76.18,-35.29 95.84,-72.43 173.09,-101.34 -15.23,-133.63 -43.87,-223.62 -48.02,-372.58l-312.75 0c13.24,215.55 104.2,356.44 187.68,473.92z"/>
    <path class="fil2" d="M23170.38 17425.66l53.45 357.44 305.68 1c-15.98,-258.35 -93.79,-299.99 -172.13,-458.69 -76.73,23.53 -112.9,75.02 -187,100.25z"/>
    <path class="fil2" d="M23355.92 18296.02c70,-137.21 156.72,-185.34 173.3,-457.85l-305.47 0.99 -51.95 356.16c79.75,27.01 113.36,75.5 184.12,100.7z"/>
    <path class="fil2" d="M22432.42 17783.04l345.21 1.06 -0.04 -211.5 -0.93 -62.76c-133.72,-9.55 -178.6,-36.06 -291.58,-67.59l-52.66 340.79z"/>
    <path class="fil2" d="M22487.2 18178.21c101.76,-32.62 166.05,-57.23 289.37,-66.49l1.31 -273.55 -338.06 0c3.63,117.23 24.73,235.39 47.38,340.04z"/>
    <path class="fil2" d="M23172.2 17838.95l-340.56 -0.78c0,345.47 -33.6,252.15 156.15,288.27 53.33,10.15 91.64,27.35 146.02,39.84l38.39 -327.33z"/>
    <polygon class="fil2" points="22833.49,17521.1 22831.4,17774.2 23172.17,17784.41 23134.51,17454.06 "/>
    <path class="fil2" d="M22832.38 17458.7c103.86,-4.51 198.55,-21.35 274.88,-58.32 -34.8,-148.67 -126.24,-301.01 -275.62,-312.76l0.74 371.08z"/>
    <path class="fil2" d="M22831.56 18524.19c154.36,33.82 265.69,-241.09 272,-306.41 -83.68,-30.63 -177.37,-64.19 -271.99,-47.4l-0.01 353.81z"/>
    <path class="fil2" d="M22510.31 18242.43c46.05,140.09 118.4,280.05 267.45,291.7l-1.73 -369.99c-91.73,7.48 -210.29,22.01 -265.72,78.29z"/>
    <path class="fil2" d="M22510.75 17381.23c61.61,51.32 170.2,68.13 262.86,76.08l4.41 -369.98c-145.44,11.44 -230.3,154.57 -267.27,293.9z"/>
    <path class="fil2" d="M23158.66 17374.12c72.99,-26.98 110.56,-51.21 136.7,-112.25 -83.19,-40.85 -149.03,-111.08 -272.97,-137.24l136.27 249.49z"/>
    <path class="fil2" d="M23020.13 18496.88c78.43,-12.46 229.46,-82.69 273.14,-158.77 -43.91,-51.66 -68.09,-62.76 -134.61,-90.48 -30.83,38.27 -40.47,90.96 -66.01,136.59 -25.54,45.63 -52.52,79.89 -72.52,112.66z"/>
    <path class="fil2" d="M22335.77 17269.59c31.53,43.73 77.84,68.1 121.14,89.71l114.16 -199.92c15.49,-26.5 1,2.94 18.81,-35.74 -67.08,14.54 -213.65,79.32 -254.11,145.95z"/>
    <path class="fil2" d="M22334.6 18354.06c92.18,88.63 147.92,111.31 256.79,144.03l-134.48 -235.85c-54.83,23.95 -85.9,57.34 -122.31,91.82z"/>
   </g>
  </g>
 </g>
</svg>
