<?xml version="1.0" encoding="UTF-8"?>
<!DOCTYPE svg PUBLIC "-//W3C//DTD SVG 1.1//EN" "http://www.w3.org/Graphics/SVG/1.1/DTD/svg11.dtd">
<!-- Creator: CorelDRAW 2018 (64-Bit) -->
<svg xmlns="http://www.w3.org/2000/svg" xml:space="preserve" width="30px" height="30px" version="1.1" style="shape-rendering:geometricPrecision; text-rendering:geometricPrecision; image-rendering:optimizeQuality; fill-rule:evenodd; clip-rule:evenodd"
viewBox="0 0 30 30"
 xmlns:xlink="http://www.w3.org/1999/xlink">
 <defs>
  <style type="text/css">
   <![CDATA[
    .fil1 {fill:#74398F}
    .fil0 {fill:#FEFEFE}
   ]]>
  </style>
 </defs>
 <g id="Layer_x0020_1">
  <metadata id="CorelCorpID_0Corel-Layer"/>
  <g id="_2016377436688">
   <g id="_1332612198912">
    <circle class="fil0" cx="15.74" cy="14.13" r="13.75"/>
    <g>
     <path class="fil1" d="M11.15 19.43c0.35,-0.34 0.65,-0.66 1.19,-0.9l1.31 2.3c-1.06,-0.32 -1.61,-0.54 -2.5,-1.4zm6.68 1.39c0.19,-0.32 0.46,-0.65 0.7,-1.1 0.25,-0.44 0.35,-0.96 0.65,-1.33 0.65,0.27 0.88,0.38 1.31,0.88 -0.43,0.74 -1.9,1.43 -2.66,1.55zm-1.84 0.27l0 -3.45c0.92,-0.17 1.84,0.16 2.65,0.46 -0.06,0.64 -1.15,3.31 -2.65,2.99zm-3.13 -2.75c0.54,-0.55 1.69,-0.69 2.59,-0.76l0.02 3.6c-1.46,-0.11 -2.16,-1.48 -2.61,-2.84zm-4.17 -3.94l3.05 0c0.04,1.45 0.32,2.33 0.47,3.63 -0.75,0.28 -0.94,0.64 -1.69,0.99 -0.81,-1.15 -1.7,-2.52 -1.83,-4.62zm12.41 4.46c-0.69,-0.24 -1.02,-0.72 -1.79,-0.98l0.5 -3.47 2.98 -0.01c-0.16,2.66 -1.01,3.12 -1.69,4.46zm-2.16 -1.26c-0.53,-0.12 -0.91,-0.29 -1.43,-0.39 -1.85,-0.35 -1.52,0.56 -1.52,-2.81l3.32 0.01 -0.37 3.19zm-6.77 -3.2l3.3 0 -0.02 2.67c-1.2,0.09 -1.82,0.33 -2.82,0.64 -0.22,-1.02 -0.42,-2.17 -0.46,-3.31zm6.77 -3.74l0.37 3.22 -3.32 -0.1 0.02 -2.47 2.93 -0.65zm-6.33 -0.12c1.1,0.31 1.54,0.57 2.84,0.66l0.01 0.61 0 2.06 -3.36 -0.01 0.51 -3.32zm6.68 -0.16c0.72,-0.25 1.08,-0.75 1.82,-0.98 0.77,1.55 1.53,1.96 1.68,4.47l-2.98 -0.01 -0.52 -3.48zm-10.6 3.49c0.14,-2.32 0.93,-3.41 2,-4.63 0.44,0.38 0.9,0.75 1.54,0.99 -0.19,1.31 -0.45,2.18 -0.49,3.64l-3.05 0zm7.3 -6.78c1.46,0.11 2.35,1.59 2.69,3.04 -0.75,0.36 -1.67,0.53 -2.68,0.57l-0.01 -3.61zm-3.13 2.86c0.36,-1.36 1.19,-2.76 2.61,-2.87l-0.04 3.61c-0.91,-0.08 -1.97,-0.24 -2.57,-0.74zm6.32 -0.07l-1.33 -2.43c1.21,0.25 1.85,0.94 2.66,1.33 -0.26,0.6 -0.62,0.83 -1.33,1.1zm-8.02 -1.02c0.39,-0.65 1.82,-1.28 2.47,-1.42 -0.17,0.37 -0.03,0.09 -0.18,0.34l-1.11 1.95c-0.42,-0.21 -0.87,-0.45 -1.18,-0.87zm3.28 -6.48c-6.08,0.7 -11.24,6.14 -10.44,13.11 0.68,6.02 6.2,11.2 13.12,10.38 6.03,-0.71 11.18,-6.09 10.37,-13.09 -0.7,-5.98 -6.14,-11.19 -13.05,-10.4z"/>
     <path class="fil0" d="M8.69 13.87l3.05 0c0.04,-1.46 0.3,-2.33 0.49,-3.64 -0.64,-0.24 -1.1,-0.61 -1.54,-0.99 -1.07,1.22 -1.86,2.31 -2,4.63z"/>
     <path class="fil0" d="M10.52 19.02c0.75,-0.35 0.94,-0.71 1.69,-0.99 -0.15,-1.3 -0.43,-2.18 -0.47,-3.63l-3.05 0c0.13,2.1 1.02,3.47 1.83,4.62z"/>
     <path class="fil0" d="M19.29 10.38l0.52 3.48 2.98 0.01c-0.15,-2.51 -0.91,-2.92 -1.68,-4.47 -0.74,0.23 -1.1,0.73 -1.82,0.98z"/>
     <path class="fil0" d="M21.1 18.86c0.68,-1.34 1.53,-1.8 1.69,-4.46l-2.98 0.01 -0.5 3.47c0.77,0.26 1.1,0.74 1.79,0.98z"/>
     <path class="fil0" d="M12.1 13.86l3.36 0.01 0 -2.06 -0.01 -0.61c-1.3,-0.09 -1.74,-0.35 -2.84,-0.66l-0.51 3.32z"/>
     <path class="fil0" d="M12.63 17.71c1,-0.31 1.62,-0.55 2.82,-0.64l0.02 -2.67 -3.3 0c0.04,1.14 0.24,2.29 0.46,3.31z"/>
     <path class="fil0" d="M19.31 14.41l-3.32 -0.01c0,3.37 -0.33,2.46 1.52,2.81 0.52,0.1 0.9,0.27 1.43,0.39l0.37 -3.19z"/>
     <polygon class="fil0" points="16.01,11.31 15.99,13.78 19.31,13.88 18.94,10.66 "/>
     <path class="fil0" d="M16 10.7c1.01,-0.04 1.93,-0.21 2.68,-0.57 -0.34,-1.45 -1.23,-2.93 -2.69,-3.04l0.01 3.61z"/>
     <path class="fil0" d="M15.99 21.09c1.5,0.32 2.59,-2.35 2.65,-2.99 -0.81,-0.3 -1.73,-0.63 -2.65,-0.46l0 3.45z"/>
     <path class="fil0" d="M12.86 18.34c0.45,1.36 1.15,2.73 2.61,2.84l-0.02 -3.6c-0.9,0.07 -2.05,0.21 -2.59,0.76z"/>
     <path class="fil0" d="M12.86 9.95c0.6,0.5 1.66,0.66 2.57,0.74l0.04 -3.61c-1.42,0.11 -2.25,1.51 -2.61,2.87z"/>
     <path class="fil0" d="M19.18 9.88c0.71,-0.27 1.07,-0.5 1.33,-1.1 -0.81,-0.39 -1.45,-1.08 -2.66,-1.33l1.33 2.43z"/>
     <path class="fil0" d="M17.83 20.82c0.76,-0.12 2.23,-0.81 2.66,-1.55 -0.43,-0.5 -0.66,-0.61 -1.31,-0.88 -0.3,0.37 -0.4,0.89 -0.65,1.33 -0.24,0.45 -0.51,0.78 -0.7,1.1z"/>
     <path class="fil0" d="M11.16 8.86c0.31,0.42 0.76,0.66 1.18,0.87l1.11 -1.95c0.15,-0.25 0.01,0.03 0.18,-0.34 -0.65,0.14 -2.08,0.77 -2.47,1.42z"/>
     <path class="fil0" d="M11.15 19.43c0.89,0.86 1.44,1.08 2.5,1.4l-1.31 -2.3c-0.54,0.24 -0.84,0.56 -1.19,0.9z"/>
    </g>
   </g>
  </g>
 </g>
</svg>
